<?xml version="1.0" encoding="UTF-8"?>
<svg width="139" height="75" viewBox="0 0 139 75" fill="none" xmlns="http://www.w3.org/2000/svg">
<path d="M2 3L13.1236 7.6257L36.382 66.6034L47 72" stroke="black" stroke-width="6"/>
<path d="M4 72L23 33" stroke="black" stroke-width="8"/>
<path d="M70.44 45.16C70.44 48.8667 69.32 52.36 67.08 55.64C64.8667 58.92 62.52 60.56 60.04 60.56C59.1867 60.56 58.44 60.2933 57.8 59.76C57.16 59.2 56.7467 58.4533 56.56 57.52C56.48 57.1467 56.44 56.5067 56.44 55.6C54.8667 58.88 52.88 60.52 50.48 60.52C49.4133 60.52 48.5333 60.2 47.84 59.56C47.1467 58.92 46.8 58.1067 46.8 57.12C46.8 55.8133 47.1733 54.3067 47.92 52.6L50.32 47.08C50.72 46.1467 50.92 45.3867 50.92 44.8C50.92 44.08 50.6133 43.72 50 43.72C49.4667 43.72 48.7867 44.08 47.96 44.8C47.1333 45.4933 46.5067 46.2533 46.08 47.08C45.9467 47.3733 45.8 47.52 45.64 47.52C45.48 47.52 45.4 47.4133 45.4 47.2C45.4 46.72 45.92 45.9467 46.96 44.88C48.3467 43.4667 49.7733 42.76 51.24 42.76C53.1867 42.76 54.16 43.5333 54.16 45.08C54.16 46.1467 53.7333 47.6267 52.88 49.52L50.52 54.72C49.9067 56.08 49.6 57.2133 49.6 58.12C49.6 59.24 50.0533 59.8 50.96 59.8C53.1733 59.8 55.44 57 57.76 51.4L59.8 46.48C59.8 46.48 60.0533 45.72 60.56 44.2C60.64 43.88 60.8267 43.7067 61.12 43.68L61.6 43.64L62.56 43.52L63.68 43.32C63.9733 43.2667 64.0933 43.24 64.04 43.24C64.2533 43.24 64.36 43.32 64.36 43.48C64.36 43.5867 64.3067 43.6933 64.2 43.8C64.0667 44.0667 63.92 44.4 63.76 44.8L60 54.2C59.4133 55.6667 59.12 56.8667 59.12 57.8C59.12 59.1067 59.6933 59.76 60.84 59.76C62.76 59.76 64.8533 57.88 67.12 54.12C68.8 51.32 69.64 48.6133 69.64 46C69.64 45.4133 69.4667 45.12 69.12 45.12C69.0667 45.12 68.9333 45.16 68.72 45.24C68.6667 45.2667 68.56 45.28 68.4 45.28C67.6267 45.28 67.24 44.9467 67.24 44.28C67.24 43.88 67.4 43.5333 67.72 43.24C68.04 42.9467 68.4267 42.8 68.88 42.8C69.92 42.8 70.44 43.5867 70.44 45.16ZM90.915 42.96C90.915 43.04 90.8083 43.32 90.595 43.8L85.315 55.8C84.8083 56.9467 84.555 57.8267 84.555 58.44C84.555 59.1333 84.9017 59.48 85.595 59.48C86.635 59.48 87.675 58.7733 88.715 57.36C88.9283 57.0667 89.0883 56.92 89.195 56.92C89.3017 56.92 89.355 56.9733 89.355 57.08C89.355 57.3733 89.0617 57.84 88.475 58.48C87.3017 59.7333 85.9017 60.36 84.275 60.36C83.4483 60.36 82.7683 60.16 82.235 59.76C81.7283 59.36 81.475 58.84 81.475 58.2C81.475 57.8 81.5683 57.3333 81.755 56.8C80.075 59.28 78.1283 60.52 75.915 60.52C74.5283 60.52 73.395 60.08 72.515 59.2C71.635 58.2933 71.195 57.1467 71.195 55.76C71.195 54.24 71.7017 52.5733 72.715 50.76C73.7283 48.9467 75.075 47.2933 76.755 45.8C79.0483 43.7733 81.155 42.76 83.075 42.76C85.075 42.76 86.195 43.72 86.435 45.64L87.435 43.52C87.6483 43.0933 87.835 42.88 87.995 42.88C88.0483 42.88 88.2083 42.9067 88.475 42.96C88.7417 43.0133 88.9283 43.04 89.035 43.04C89.6217 43.04 90.075 42.96 90.395 42.8C90.5017 42.72 90.595 42.68 90.675 42.68C90.835 42.68 90.915 42.7733 90.915 42.96ZM85.875 46.36C85.875 45.5333 85.6217 44.8667 85.115 44.36C84.635 43.8533 84.0083 43.6 83.235 43.6C81.9017 43.6 80.6217 44.3867 79.395 45.96C77.9817 47.7467 76.8483 49.64 75.995 51.64C75.1417 53.6133 74.715 55.3467 74.715 56.84C74.715 58.6533 75.4617 59.56 76.955 59.56C77.8083 59.56 78.7283 59.0933 79.715 58.16C80.7283 57.2267 81.5683 56.0533 82.235 54.64L85.355 47.92C85.7017 47.1733 85.875 46.6533 85.875 46.36ZM104.807 32C104.807 32.0533 104.741 32.24 104.607 32.56C104.527 32.7733 104.394 33.0933 104.207 33.52L95.2472 55.4C94.5805 57.0267 94.2472 58.08 94.2472 58.56C94.2472 59.28 94.7272 59.64 95.6872 59.64C96.6472 59.64 97.6072 59.08 98.5672 57.96C98.9672 57.48 99.2205 57.24 99.3272 57.24C99.5139 57.24 99.6072 57.3333 99.6072 57.52C99.6072 57.8667 99.1672 58.4267 98.2872 59.2C97.2739 60.1067 95.9672 60.56 94.3672 60.56C92.1805 60.56 91.0872 59.7467 91.0872 58.12C91.0872 57.5867 91.4205 56.5067 92.0872 54.88L101.047 33.04C101.127 32.88 101.167 32.7867 101.167 32.76C101.167 32.52 100.914 32.4 100.407 32.4C99.2339 32.4 98.6472 32.2933 98.6472 32.08C98.6472 31.92 98.7672 31.84 99.0072 31.84C99.2472 31.84 99.6072 31.8533 100.087 31.88C100.594 31.9067 100.967 31.92 101.207 31.92C102.354 31.92 103.207 31.8667 103.767 31.76C104.061 31.7067 104.261 31.68 104.367 31.68C104.661 31.68 104.807 31.7867 104.807 32ZM114.534 32C114.534 32.0533 114.467 32.24 114.334 32.56C114.254 32.7733 114.12 33.0933 113.934 33.52L104.974 55.4C104.307 57.0267 103.974 58.08 103.974 58.56C103.974 59.28 104.454 59.64 105.414 59.64C106.374 59.64 107.334 59.08 108.294 57.96C108.694 57.48 108.947 57.24 109.054 57.24C109.24 57.24 109.334 57.3333 109.334 57.52C109.334 57.8667 108.894 58.4267 108.014 59.2C107 60.1067 105.694 60.56 104.094 60.56C101.907 60.56 100.814 59.7467 100.814 58.12C100.814 57.5867 101.147 56.5067 101.814 54.88L110.774 33.04C110.854 32.88 110.894 32.7867 110.894 32.76C110.894 32.52 110.64 32.4 110.134 32.4C108.96 32.4 108.374 32.2933 108.374 32.08C108.374 31.92 108.494 31.84 108.734 31.84C108.974 31.84 109.334 31.8533 109.814 31.88C110.32 31.9067 110.694 31.92 110.934 31.92C112.08 31.92 112.934 31.8667 113.494 31.76C113.787 31.7067 113.987 31.68 114.094 31.68C114.387 31.68 114.534 31.7867 114.534 32ZM126.42 45.52C126.42 46.96 125.647 48.16 124.1 49.12C122.554 50.0533 120.594 50.52 118.22 50.52C117.367 50.52 116.42 50.4533 115.38 50.32C114.394 52.3733 113.9 54.28 113.9 56.04C113.9 58.4133 114.954 59.6 117.06 59.6C118.687 59.6 120.274 58.7467 121.82 57.04C122.167 56.6667 122.394 56.48 122.5 56.48C122.634 56.48 122.7 56.5467 122.7 56.68C122.7 57.2933 122.074 58.0533 120.82 58.96C119.38 60 117.887 60.52 116.34 60.52C114.607 60.52 113.18 60.0133 112.06 59C110.94 57.9867 110.38 56.7067 110.38 55.16C110.38 52.1733 112.007 49.28 115.26 46.48C118.114 44.0267 120.66 42.8 122.9 42.8C125.247 42.8 126.42 43.7067 126.42 45.52ZM123.58 44.84C123.58 44.0133 123.167 43.6 122.34 43.6C121.487 43.6 120.647 43.92 119.82 44.56C118.327 45.7333 116.954 47.48 115.7 49.8C116.02 49.8267 116.38 49.84 116.78 49.84C118.274 49.84 119.727 49.3867 121.14 48.48C122.767 47.4667 123.58 46.2533 123.58 44.84ZM138.536 43.24C138.536 43.6133 137.976 43.8133 136.856 43.84L135.336 43.88H134.616L129.216 56C128.629 57.3067 128.336 58.1333 128.336 58.48C128.336 59.04 128.749 59.32 129.576 59.32C130.776 59.32 131.842 58.68 132.776 57.4C132.989 57.1333 133.149 57 133.256 57C133.469 57 133.576 57.0933 133.576 57.28C133.576 57.6267 133.136 58.1867 132.256 58.96C131.242 59.84 130.029 60.28 128.616 60.28C127.656 60.28 126.869 60.04 126.256 59.56C125.669 59.08 125.376 58.4667 125.376 57.72C125.376 57.24 125.682 56.3467 126.296 55.04L131.536 43.8H129.896C129.442 43.8 129.216 43.7067 129.216 43.52C129.216 43.1733 129.402 43 129.776 43H130.136C130.269 43.0267 130.482 43.04 130.776 43.04C131.149 43.04 131.509 43.0267 131.856 43L132.536 41.28C132.776 40.6933 132.962 40.4 133.096 40.4C133.229 40.4 133.429 40.4267 133.696 40.48C133.989 40.5333 134.216 40.56 134.376 40.56C134.669 40.56 135.096 40.4267 135.656 40.16C135.762 40.1067 135.856 40.08 135.936 40.08C136.069 40.08 136.136 40.1333 136.136 40.24C136.136 40.24 135.989 40.56 135.696 41.2L134.816 43.12L135.776 43.08L137.296 43C137.429 43 137.589 42.9867 137.776 42.96C137.962 42.9333 138.069 42.92 138.096 42.92C138.389 42.92 138.536 43.0267 138.536 43.24Z" fill="black"/>
<path d="M48.6 13.52C48.6 14.96 47.8267 16.16 46.28 17.12C44.7333 18.0533 42.7733 18.52 40.4 18.52C39.5467 18.52 38.6 18.4533 37.56 18.32C36.5733 20.3733 36.08 22.28 36.08 24.04C36.08 26.4133 37.1333 27.6 39.24 27.6C40.8667 27.6 42.4533 26.7467 44 25.04C44.3467 24.6667 44.5733 24.48 44.68 24.48C44.8133 24.48 44.88 24.5467 44.88 24.68C44.88 25.2933 44.2533 26.0533 43 26.96C41.56 28 40.0667 28.52 38.52 28.52C36.7867 28.52 35.36 28.0133 34.24 27C33.12 25.9867 32.56 24.7067 32.56 23.16C32.56 20.1733 34.1867 17.28 37.44 14.48C40.2933 12.0267 42.84 10.8 45.08 10.8C47.4267 10.8 48.6 11.7067 48.6 13.52ZM45.76 12.84C45.76 12.0133 45.3467 11.6 44.52 11.6C43.6667 11.6 42.8267 11.92 42 12.56C40.5067 13.7333 39.1333 15.48 37.88 17.8C38.2 17.8267 38.56 17.84 38.96 17.84C40.4533 17.84 41.9067 17.3867 43.32 16.48C44.9467 15.4667 45.76 14.2533 45.76 12.84ZM60.1953 3.56C60.1953 4.68 59.6753 5.24 58.6353 5.24C58.102 5.24 57.662 5.08 57.3153 4.76C56.9686 4.41333 56.7953 3.98667 56.7953 3.48C56.7953 2.38667 57.4086 1.84 58.6353 1.84C59.6753 1.84 60.1953 2.41333 60.1953 3.56ZM57.4353 11.04C57.4353 11.12 57.3686 11.28 57.2353 11.52C57.0486 11.84 56.742 12.4933 56.3153 13.48L51.7153 24C51.102 25.4133 50.7953 26.2933 50.7953 26.64C50.7953 27.36 51.1686 27.72 51.9153 27.72C52.422 27.72 52.9953 27.5467 53.6353 27.2C54.302 26.8267 54.8086 26.3867 55.1553 25.88C55.3953 25.56 55.582 25.4 55.7153 25.4C55.8753 25.4 55.9553 25.48 55.9553 25.64C55.9553 25.96 55.582 26.44 54.8353 27.08C53.7153 28.04 52.4486 28.52 51.0353 28.52C50.102 28.52 49.3286 28.28 48.7153 27.8C48.1286 27.32 47.8353 26.7067 47.8353 25.96C47.8353 25.2933 48.1686 24.2133 48.8353 22.72L52.9953 13.44C53.1286 12.9867 53.2886 12.64 53.4753 12.4C53.5553 12.2933 53.5953 12.2 53.5953 12.12C53.5953 11.88 53.0086 11.72 51.8353 11.64C51.622 11.5867 51.5153 11.4933 51.5153 11.36C51.5153 11.12 51.622 11 51.8353 11C51.862 11 52.062 11.0267 52.4353 11.08C52.8086 11.1333 53.4086 11.16 54.2353 11.16C55.3553 11.16 56.142 11.0667 56.5953 10.88C56.862 10.7733 57.0486 10.72 57.1553 10.72C57.342 10.72 57.4353 10.8267 57.4353 11.04ZM76.1247 12.32C76.1247 13.1733 75.7247 13.6 74.9247 13.6C74.178 13.6 73.8047 13.24 73.8047 12.52C73.8047 12.44 73.818 12.36 73.8447 12.28C73.8714 12.1733 73.898 12.04 73.9247 11.88C73.9247 11.7467 73.8447 11.68 73.6847 11.68C73.418 11.68 73.0314 11.9733 72.5247 12.56C72.0447 13.12 71.8047 13.5467 71.8047 13.84C71.8047 13.9733 71.858 14.1333 71.9647 14.32C72.2847 15.0667 72.4447 15.88 72.4447 16.76C72.4447 18.6533 71.8047 20.2667 70.5247 21.6C69.2714 22.9067 67.5914 23.56 65.4847 23.56C63.938 23.56 62.5514 23.12 61.3247 22.24C59.2714 22.96 58.2447 23.76 58.2447 24.64C58.2447 25.2 58.6447 25.5467 59.4447 25.68C60.938 25.92 61.778 26.0133 61.9647 25.96H65.2847C66.8047 25.96 67.898 26.04 68.5647 26.2C70.538 26.68 71.5247 28.12 71.5247 30.52C71.5247 32.6533 70.7647 34.4933 69.2447 36.04C67.618 37.6933 65.3647 38.52 62.4847 38.52C60.4047 38.52 58.5647 38.04 56.9647 37.08C55.018 35.9067 54.0447 34.5333 54.0447 32.96C54.0447 31.8667 54.538 30.96 55.5247 30.24C55.978 29.92 56.978 29.4667 58.5247 28.88C56.978 28.24 56.2047 27.3067 56.2047 26.08C56.2047 24.0533 57.7514 22.6 60.8447 21.72C59.9914 20.6 59.5647 19.4667 59.5647 18.32C59.5647 16.2667 60.3114 14.5067 61.8047 13.04C63.3247 11.5467 65.1247 10.8 67.2047 10.8C68.8047 10.8 70.1647 11.52 71.2847 12.96C72.2714 11.44 73.3114 10.68 74.4047 10.68C75.5514 10.68 76.1247 11.2267 76.1247 12.32ZM69.6447 14.28C69.6447 12.4133 68.8714 11.48 67.3247 11.48C66.0447 11.48 64.898 12.6 63.8847 14.84C63.0047 16.76 62.5647 18.56 62.5647 20.24C62.5647 21.9733 63.418 22.84 65.1247 22.84C66.378 22.84 67.458 21.8133 68.3647 19.76C69.218 17.84 69.6447 16.0133 69.6447 14.28ZM70.3647 32C70.3647 31.3333 70.1514 30.7333 69.7247 30.2C69.298 29.6933 68.7647 29.3733 68.1247 29.24C67.2447 29.0533 65.8447 28.9733 63.9247 29L59.4047 29.08C57.7514 29.9067 56.9247 31.1867 56.9247 32.92C56.9247 34.3867 57.4447 35.56 58.4847 36.44C59.5514 37.3467 60.9514 37.8 62.6847 37.8C64.738 37.8 66.5247 37.2133 68.0447 36.04C69.5914 34.8933 70.3647 33.5467 70.3647 32ZM90.7094 13.52C90.7094 14.96 89.936 16.16 88.3894 17.12C86.8427 18.0533 84.8827 18.52 82.5094 18.52C81.656 18.52 80.7094 18.4533 79.6694 18.32C78.6827 20.3733 78.1894 22.28 78.1894 24.04C78.1894 26.4133 79.2427 27.6 81.3494 27.6C82.976 27.6 84.5627 26.7467 86.1094 25.04C86.456 24.6667 86.6827 24.48 86.7894 24.48C86.9227 24.48 86.9894 24.5467 86.9894 24.68C86.9894 25.2933 86.3627 26.0533 85.1094 26.96C83.6694 28 82.176 28.52 80.6294 28.52C78.896 28.52 77.4694 28.0133 76.3494 27C75.2294 25.9867 74.6694 24.7067 74.6694 23.16C74.6694 20.1733 76.296 17.28 79.5494 14.48C82.4027 12.0267 84.9494 10.8 87.1894 10.8C89.536 10.8 90.7094 11.7067 90.7094 13.52ZM87.8694 12.84C87.8694 12.0133 87.456 11.6 86.6294 11.6C85.776 11.6 84.936 11.92 84.1094 12.56C82.616 13.7333 81.2427 15.48 79.9894 17.8C80.3094 17.8267 80.6694 17.84 81.0694 17.84C82.5627 17.84 84.016 17.3867 85.4294 16.48C87.056 15.4667 87.8694 14.2533 87.8694 12.84ZM107.865 13.96C107.865 14.6 107.518 15.7067 106.825 17.28L103.585 24.6C103.211 25.4533 103.025 26.0267 103.025 26.32C103.025 26.88 103.331 27.16 103.945 27.16C104.691 27.16 105.785 26.5467 107.225 25.32C107.358 25.24 107.465 25.2 107.545 25.2C107.705 25.2 107.785 25.2667 107.785 25.4C107.785 25.72 107.345 26.1867 106.465 26.8C105.265 27.6267 103.985 28.04 102.625 28.04C101.798 28.04 101.118 27.8667 100.585 27.52C100.051 27.1467 99.7847 26.68 99.7847 26.12C99.7847 25.6667 100.038 24.8667 100.545 23.72L103.745 16.56C104.518 14.8267 104.905 13.6533 104.905 13.04C104.905 12.1333 104.438 11.68 103.505 11.68C102.278 11.68 100.838 12.56 99.1847 14.32C97.9314 15.6533 96.7847 17.52 95.7447 19.92L92.4647 27.52C92.3314 27.92 92.158 28.12 91.9447 28.12C91.8914 28.12 91.598 28.0933 91.0647 28.04C90.9847 28.0133 90.8247 28 90.5847 28C90.3714 28 90.0114 28.0267 89.5047 28.08C89.4247 28.1067 89.3314 28.12 89.2247 28.12C89.038 28.12 88.9447 28.0533 88.9447 27.92C88.9447 27.8667 88.9847 27.7867 89.0647 27.68L89.3447 27.08L95.4647 12.36C95.5447 12.2267 95.6114 12.1067 95.6647 12C95.638 11.8133 95.3047 11.7067 94.6647 11.68C93.8647 11.6533 93.4647 11.5067 93.4647 11.24C93.4647 11.0533 93.6114 10.96 93.9047 10.96C94.0914 10.96 94.3847 10.9867 94.7847 11.04C95.1847 11.0933 95.4914 11.12 95.7047 11.12C97.1447 11.12 98.0914 11.0133 98.5447 10.8C98.7314 10.72 98.8514 10.68 98.9047 10.68C99.0647 10.68 99.1447 10.76 99.1447 10.92C99.1447 11 99.1314 11.0667 99.1047 11.12L97.6247 14.88C97.838 14.64 98.1447 14.3067 98.5447 13.88C100.518 11.8 102.425 10.76 104.265 10.76C105.331 10.76 106.198 11.0667 106.865 11.68C107.531 12.2667 107.865 13.0267 107.865 13.96Z" fill="black"/>
</svg>