<svg xmlns="http://www.w3.org/2000/svg" viewBox="0 0 1604 800"><defs><style>.cls-1{fill:#f1482d;}.cls-2,.cls-3{fill:#232075;}.cls-2{opacity:0.22;}.cls-3{opacity:0.44;}.cls-4{fill:#fff;}</style></defs><title>haveno_logo_landscape</title><g id="Layer_4" data-name="Layer 4"><polygon class="cls-1" points="379.28 228.43 400.79 233.97 409.42 244.21 442.3 265.77 446.61 269.54 455.77 309.43 462.24 315.36 466.01 310.51 499.75 329.63 511.07 340.42 505.37 385.98 494.05 386.52 494.05 393.52 505.37 426.4 461.7 514.81 459.55 523.43 435.29 539.6 404.03 557.93 378.57 558.73 354.43 579.49 299.99 592.97 294.06 574.1 271.42 568.71 165.77 487.86 179.25 475.46 163.61 464.68 151 353.99 209.97 241.51 235.84 233.97 240.7 237.74 252.02 238.28 260.64 230.73 279.41 216.31 315.08 207.03 326.49 232 345.75 250.55 379.28 228.43"/><path class="cls-2" d="M408.93,272.25c17.34,5.56,25.74,21.37,41.11,51.35C466.66,356,475,372.22,469.22,386.36c-6.78,16.69-27.73,22.46-25.58,34.23,1.08,5.9,6.79,6.86,8.23,14.26,1.85,9.56-5.58,18.64-8.23,21.87-20.18,24.67-48.49,11.45-74,35.19-9.12,8.49-4.73,9.46-22.84,31.38-16.22,19.64-24.34,29.45-34.72,31.38-20.15,3.74-41.75-17.36-52.07-35.18-13.37-23.1-2.84-32.15-15.53-56.11-14.71-27.76-33.37-24.17-43.86-50.4-7.52-18.81-4.3-36.64-1.82-50.4,2.29-12.71,9.74-54.06,37.45-67.51,27-13.1,40.55,16.1,78.57,5.7,23.54-6.43,29.72-20.74,64-27.57C391.56,270.64,399.38,269.18,408.93,272.25Z"/><path class="cls-3" d="M339.2,319.68c-23.4.1-74.17.31-100.26,25.4-2,1.93-22.12,21.74-11.8,35.23,10,13,38.2,6.8,50.72,20.48,10.06,11-4.26,19.2-1.18,41.79,2.39,17.45,15.17,43.59,40.11,47.52,18.38,2.89,35.88-7.46,41.29-10.66,26.85-15.87,29.75-41.08,30.67-50.79,3.36-35.59-22.71-48.67-8.26-71.28,9.19-14.39,25.43-18,22.41-25.4C397.81,319.43,347.54,319.65,339.2,319.68Z"/><path class="cls-3" d="M289,357.55c4.41-8.68,29.57-16.36,47.14-10,10.34,3.75,16.16,11.69,14.94,18.54-1.4,7.86-3,9.72-7,17.78-5.33,10.88,9.35,13.54,10.7,28.54C356,425.69,338.07,441,331.49,441c-43.08-.06.51-33.13-32.19-65.63C293.21,369.33,285.9,363.58,289,357.55Z"/><path class="cls-4" d="M297.39,389.54h67.29V320.35h46.6V499.63h-46.6V426.16H297.39v73.47h-46.6V320.35h46.6Z"/><circle class="cls-4" cx="331.22" cy="281.17" r="23.54"/><path class="cls-1" d="M640.34,391.62h53.91V336.18h37.34V479.82H694.25V421H640.34v58.87H603V336.18h37.34Z"/><path class="cls-1" d="M844,454.86H792.55l-9.91,25H743l55.24-143.64H839l54.1,143.64H853.32Zm-10.1-28.57-15.24-45.72h-.38l-15.43,45.72Z"/><path class="cls-1" d="M909.32,336.18,944,423.43l34.87-87.25h40.57L958.09,479.82h-29L868.75,336.18Z"/><path class="cls-1" d="M1110.49,367.8H1066.1v24h42.1v31.62h-42.1V448.2h44.39v31.62h-81.73V336.18h81.73Z"/><path class="cls-1" d="M1133.54,479.82V336.18h37.33L1239.26,424h.38V336.18H1277V479.82h-37.34l-68.39-88h-.38v88Z"/><path class="cls-1" d="M1334.7,340.66a86.34,86.34,0,0,1,77.72,0A75.64,75.64,0,0,1,1441.76,367,68.37,68.37,0,0,1,1453,405.33q0,34.86-22.38,57.06t-57.06,22.19q-34.66,0-57-22.19t-22.39-57.06A68.37,68.37,0,0,1,1305.36,367,75.71,75.71,0,0,1,1334.7,340.66ZM1402.14,379a41.43,41.43,0,0,0-57.15,0q-12,11.43-12,26.48,0,18.3,11.81,30.58a39.81,39.81,0,0,0,57.53,0q11.81-12.28,11.81-30.58Q1414.14,390.48,1402.14,379Z"/></g></svg>