<svg width="320" height="85" viewBox="0 0 320 85" fill="none" xmlns="http://www.w3.org/2000/svg">
    <path d="M224.858 20.8164C222.48 20.7146 220.107 21.1204 217.899 22.0067C215.691 22.893 213.698 24.2392 212.056 25.955C208.741 29.6418 207.008 34.4752 207.23 39.4191C207.129 41.7578 207.497 44.0931 208.311 46.2891C209.125 48.4851 210.37 50.498 211.972 52.2106C213.565 53.8399 215.484 55.1184 217.604 55.9634C219.724 56.8087 221.998 57.202 224.28 57.1176C226.614 57.2051 228.94 56.7989 231.105 55.9255C233.269 55.0522 235.224 53.7316 236.838 52.0511C240.153 48.4137 241.888 43.6177 241.664 38.7107C241.881 33.9452 240.212 29.2852 237.012 25.7346C235.452 24.1003 233.559 22.8161 231.461 21.9676C229.363 21.1191 227.107 20.7259 224.844 20.8141L224.858 20.8164ZM10 21.4055V56.4453H17.1226V37.069C17.1226 34.4633 17.0165 31.4333 16.8042 27.979H17.0301C17.0301 27.979 17.904 32.2316 26.4855 56.4453H32.9465C41.5031 31.6739 42.2777 27.9813 42.2777 27.9813H42.4742C42.2077 30.4719 42.1097 32.9775 42.1806 35.4813V56.4431H49.9852V21.4055H38.6938L31.535 42.1266C30.9819 43.7873 30.5161 45.4754 30.1394 47.1844H29.9926C29.7252 45.4817 29.3073 43.8057 28.7438 42.1762L21.5737 21.4055H10ZM109.491 21.4055V56.5081H116.968V37.2196C116.968 34.6709 116.903 32.7781 116.772 31.5412H116.869C117.406 32.5455 117.996 33.5213 118.635 34.4648L133.124 56.5218H141.121V21.4078H133.634V40.8201C133.595 42.4292 133.662 44.039 133.835 45.6394H133.732C133.191 44.6934 132.603 43.7391 131.968 42.7767L118.023 21.4123L109.491 21.4055ZM151.007 21.4055V56.5081H172.093V50.0967H158.927V42.0727H170.429V35.6522H158.927V27.8418H171.287V21.4055H151.007ZM176.763 21.4055V27.8418H186.743V56.5081H194.687V27.8418H204.712V21.4055H176.763ZM249.358 21.4055V56.5081H257.283V43.069H259.417C259.886 43.0654 260.349 43.1702 260.772 43.3748C261.219 43.6 261.625 43.8979 261.975 44.2564C262.391 44.6828 262.77 45.145 263.104 45.6372C263.484 46.1769 263.872 46.7887 264.281 47.4745L269.748 56.5059H278.84L272.21 46.1206C271.86 45.5809 271.485 45.0321 271.067 44.47C270.661 43.9208 270.223 43.3952 269.755 42.8958C269.319 42.4267 268.845 41.9962 268.335 41.6095C267.876 41.2591 267.361 40.9897 266.813 40.8133V40.7234C267.955 40.403 269.05 39.9245 270.06 39.302C271.002 38.7241 271.839 37.9963 272.544 37.1477C273.233 36.3108 273.77 35.3632 274.138 34.3456C274.52 33.256 274.71 32.1085 274.698 30.9543C274.698 24.59 270.433 21.4078 261.903 21.4078L249.358 21.4055ZM310 21.4055H301.613C295.852 34.5997 295.308 36.1919 295.095 37.3726H294.996C294.544 35.7084 294.285 34.7526 288.521 21.4055H279.477L290.633 44.1709V56.5081H298.553V44.0247L310 21.4055ZM257.283 27.3291H260.864C264.545 27.3291 266.386 28.8636 266.386 31.9325C266.399 32.6247 266.266 33.3118 265.993 33.9487C265.719 34.5855 265.315 35.1577 264.805 35.6274C264.254 36.1285 263.608 36.5161 262.906 36.7681C262.203 37.0201 261.458 37.1315 260.713 37.0959H257.283V27.3291ZM224.406 27.6192H224.436H224.641C225.872 27.5724 227.096 27.8241 228.207 28.3525C229.318 28.881 230.284 29.6704 231.021 30.6529C232.71 33.1545 233.527 36.1399 233.345 39.1492C233.519 42.0727 232.671 44.9664 230.944 47.3374C230.145 48.2695 229.151 49.0163 228.032 49.526C226.913 50.0354 225.695 50.2952 224.464 50.2871C223.234 50.2788 222.02 50.0031 220.907 49.4789C219.795 48.9546 218.811 48.1946 218.024 47.2519C216.274 44.8666 215.406 41.9509 215.57 39.0007C215.426 36.0494 216.291 33.1366 218.024 30.7384C218.773 29.7605 219.739 28.9691 220.847 28.4267C221.955 27.8842 223.174 27.6054 224.409 27.6124L224.406 27.6192ZM77.5228 31.0825C77.4542 31.0837 77.386 31.0928 77.3196 31.1094C75.1096 31.6763 73.1833 33.0266 71.9017 34.9069C70.6201 36.7872 70.0714 39.0685 70.3582 41.323C70.6452 43.5776 71.7481 45.6504 73.4601 47.153C75.1724 48.6556 77.376 49.4845 79.658 49.4845C81.94 49.4845 84.1437 48.6556 85.8559 47.153C87.5679 45.6504 88.6708 43.5776 88.9579 41.323C89.2447 39.0685 88.6959 36.7872 87.4143 34.9069C86.1328 33.0266 84.2064 31.6763 81.9965 31.1094C81.8626 31.075 81.7223 31.0717 81.5868 31.0997C81.4513 31.1277 81.3242 31.1864 81.2151 31.2711C81.106 31.3559 81.0177 31.4645 80.9577 31.5885C80.8974 31.7125 80.8664 31.8487 80.8673 31.9865V32.6139C80.8676 32.8132 80.9342 33.0069 81.0568 33.1644C81.1794 33.3219 81.3511 33.4344 81.5448 33.4842C83.162 33.9358 84.5601 34.9551 85.481 36.3537C86.4019 37.7523 86.7831 39.4357 86.5544 41.0924C86.3256 42.7493 85.502 44.2676 84.2362 45.3666C82.9702 46.4658 81.3477 47.0713 79.6682 47.0713C77.9887 47.0713 76.3661 46.4658 75.1001 45.3666C73.8343 44.2676 73.0107 42.7493 72.782 41.0924C72.5532 39.4357 72.9344 37.7523 73.8553 36.3537C74.7763 34.9551 76.1744 33.9358 77.7915 33.4842C77.9853 33.4344 78.1569 33.3219 78.2796 33.1644C78.4022 33.0069 78.4688 32.8132 78.469 32.6139V31.9865C78.469 31.8657 78.4446 31.7461 78.3974 31.6348C78.35 31.5236 78.2807 31.423 78.1933 31.339C78.1061 31.2551 78.0027 31.1895 77.8896 31.1462C77.7762 31.1029 77.6554 31.0827 77.5341 31.087L77.5228 31.0825Z" fill="#19202E"/>
    <path fill-rule="evenodd" clip-rule="evenodd" d="M63.0655 40.9189C62.9388 37.8306 63.7111 34.7715 65.2899 32.1102C66.7056 29.674 68.7225 27.6379 71.1495 26.1948C73.5762 24.7517 76.3327 23.9493 79.1581 23.8636C81.7384 23.7504 84.3074 24.2637 86.6443 25.3591C86.8728 25.4454 87.0948 25.5484 87.3082 25.6672C87.9514 26.0032 88.5729 26.3788 89.169 26.7916C89.9606 27.3295 90.6965 27.9442 91.3664 28.6267C91.7017 28.9408 92.0186 29.2742 92.3148 29.6252C93.2764 30.705 94.0772 31.9168 94.6928 33.2234C95.658 35.2191 96.2036 37.3902 96.2962 39.6034V41.1282C96.1591 44.7813 94.7953 48.2829 92.4232 51.0727L91.2151 52.3635C91.127 52.449 91.0479 52.4963 90.9508 52.5885C88.4999 54.8184 85.439 56.2732 82.1566 56.7681C78.8742 57.263 75.5181 56.7757 72.5142 55.368C69.0235 53.692 66.2251 50.8616 64.5966 47.3598C63.6251 45.345 63.1028 43.1448 63.0655 40.91V40.9189ZM78.7967 17H80.504C82.8233 17.0897 85.1181 17.5069 87.3195 18.2391C87.4753 18.2908 87.6086 18.3291 87.7395 18.3786C89.9495 19.1941 92.0292 20.3242 93.9137 21.7339L95.5916 23.1169L98.0148 25.6964C100.281 28.4687 101.87 31.7276 102.656 35.2159C103.212 37.6064 103.372 40.0714 103.13 42.5135C102.801 46.2504 101.565 49.8521 99.5301 53.0089L98.7374 54.2302C98.9632 54.5606 105.797 61.287 106.416 61.9078C107.732 63.221 108.349 63.7069 108.349 65.6005C108.28 66.4048 107.928 67.1587 107.355 67.7301C106.783 68.3015 106.026 68.6535 105.219 68.7241C103.292 68.7241 102.807 68.0899 101.474 66.7653C100.849 66.1425 94.117 59.371 93.7963 59.1552C92.1949 60.3475 90.4499 61.3357 88.6022 62.0967C87.5984 62.5049 86.5686 62.8468 85.5197 63.1198C84.3928 63.4086 83.2451 63.6102 82.0871 63.7226C79.6023 63.9514 77.0969 63.8074 74.655 63.2953C71.5966 62.6263 68.7013 61.3606 66.1368 59.5711C65.7393 59.2923 65.3915 59.0112 64.9896 58.7009C64.0422 57.9393 63.1495 57.1129 62.318 56.2272L60.963 54.6012C59.4294 52.6087 58.2334 50.3797 57.422 48.0029C56.486 45.3529 56.063 42.5498 56.1755 39.743C56.2017 38.0534 56.4291 36.373 56.8529 34.7369C57.5451 31.9333 58.7607 29.2845 60.4368 26.9288C61.6136 25.2848 62.9914 23.7928 64.5379 22.4872C68.5439 19.1255 73.5638 17.194 78.799 17H78.7967Z" fill="#19202E"/>
</svg>
