<?xml version="1.0" standalone="no"?>
<!DOCTYPE svg PUBLIC "-//W3C//DTD SVG 20010904//EN"
 "http://www.w3.org/TR/2001/REC-SVG-20010904/DTD/svg10.dtd">
<svg version="1.0" xmlns="http://www.w3.org/2000/svg"
 width="700.000000pt" height="700.000000pt" viewBox="0 0 700.000000 700.000000"
 preserveAspectRatio="xMidYMid meet">
<metadata>
Created by potrace 1.11, written by Peter Selinger 2001-2013
</metadata>
<g transform="translate(0.000000,700.000000) scale(0.100000,-0.100000)"
fill="#000000" stroke="none">
<path d="M3370 6894 c-410 -21 -760 -95 -1116 -235 -1129 -445 -1939 -1467
-2114 -2666 -69 -479 -37 -963 97 -1436 l36 -127 508 0 509 0 0 1427 0 1428
1105 -1105 1105 -1105 1105 1105 1105 1105 0 -1428 0 -1427 509 0 508 0 36
127 c134 473 166 957 97 1436 -212 1456 -1350 2616 -2800 2856 -207 34 -511
54 -690 45z"/>
<path d="M2028 2635 l-3 -900 -713 -5 -713 -5 79 -117 c526 -777 1341 -1305
2252 -1457 200 -34 338 -45 570 -45 305 0 533 27 805 93 824 202 1538 700
2016 1409 l80 117 -716 3 -715 2 0 903 0 902 -735 -735 -735 -735 -735 735
-735 735 -2 -900z"/>
</g>
</svg>
