<?xml version="1.0" standalone="no"?>
<!DOCTYPE svg PUBLIC "-//W3C//DTD SVG 1.1//EN" "http://www.w3.org/Graphics/SVG/1.1/DTD/svg11.dtd">
<svg xmlns="http://www.w3.org/2000/svg">
<defs >
<font id="Hind" horiz-adv-x="561" ><font-face
    font-family="Hind"
    units-per-em="1000"
    panose-1="2 0 0 0 0 0 0 0 0 0"
    ascent="1055"
    descent="-546"
    alphabetic="0" />
<glyph unicode=" " glyph-name="space" horiz-adv-x="250" />
<glyph unicode="!" glyph-name="exclam" horiz-adv-x="289" d="M75 236V674H214V236H75ZM52 45T52 83T78 147T143 174T207 148T234 83T208 19T143 -8T79 18Z" />
<glyph unicode="&quot;" glyph-name="quotedbl" horiz-adv-x="387" d="M40 420V681H162V420H40ZM225 420V681H347V420H225Z" />
<glyph unicode="#" glyph-name="numbersign" horiz-adv-x="757" d="M429 265L457 400H321L292 265H429ZM712 400H581L552 265H678V154H529L496 0H373L405 154H269L236 0H113L145 154H45V265H169L197 400H79V516H222L255 673H379L346 516H482L515 673H639L606 516H712V400Z"
/>
<glyph unicode="$" glyph-name="dollar" horiz-adv-x="514" d="M449 644V500Q368 547 281 547Q242 547 222 531T201 490T226 446T301 404Q332 390 352 380T399 351T441 312T468 261T479 196Q479 120 431 67T299 -2V-118H178V-5Q95 3 40 34V189Q131 123 234 123Q269
123 292 141T315 190Q315 200 312 209T301 226T286 239T264 252T239 265T210 279T178 293Q113 323 74 367T34 484Q34 561 85 612T227 675V790H349V673Q402 665 449 644Z" />
<glyph unicode="%" glyph-name="percent" horiz-adv-x="973" d="M227 -1L606 707H738L358 -1H227ZM548 103T548 182T603 316T738 372T872 317T928 182T873 48T738 -8T604 47ZM45 453T45 532T100 666T235 722T369 667T425 532T370 398T235 342T101 397ZM162 562T162
532T183 481T235 459T286 480T308 532T287 583T235 605T184 584ZM665 212T665 182T686 131T738 109T789 130T811 182T790 233T738 255T687 234Z" />
<glyph unicode="&amp;" glyph-name="ampersand" horiz-adv-x="742" d="M425 130L298 254Q295 257 289 263T278 273Q232 257 216 237T199 189Q199 155 238 134T336 112Q383 112 425 130ZM339 569Q310 569 291 552T272 504Q272 460 341 391Q416 432 416 492Q416
529 396 549T339 569ZM737 0H558L519 39Q438 -8 335 -8Q203 -8 127 48T50 184Q50 308 192 354Q124 429 124 502Q124 591 185 639T339 688Q444 688 503 639T563 500Q563 441 530 396T421 312L519 216Q537 255 537 301H668Q668 201 612 123L737 0Z" />
<glyph unicode="&apos;" glyph-name="quotesingle" horiz-adv-x="202" d="M40 420V681H162V420H40Z" />
<glyph unicode="(" glyph-name="parenleft" horiz-adv-x="338" d="M358 -196H203Q40 7 40 259Q40 519 197 707H348Q275 618 235 491T194 255Q194 149 236 26T358 -196Z" />
<glyph unicode=")" glyph-name="parenright" horiz-adv-x="338" d="M141 707Q298 519 298 259Q298 7 135 -196H-20Q60 -98 102 25T144 255Q144 364 104 491T-10 707H141Z" />
<glyph unicode="*" glyph-name="asterisk" horiz-adv-x="508" d="M339 428H337Q358 412 373 392L431 312L335 243L278 322Q262 344 256 365Q248 346 232 323L173 243L78 313L136 392Q151 412 171 427Q148 427 122 436L28 467L65 579L158 549Q184 540 203 526Q196
550 196 576V674H314V576Q314 550 307 526Q325 539 351 548L445 578L481 466L389 436Q364 428 339 428Z" />
<glyph unicode="+" glyph-name="plus" horiz-adv-x="589" d="M544 404V274H361V94H227V274H45V404H227V585H361V404H544Z" />
<glyph unicode="," glyph-name="comma" horiz-adv-x="294" d="M-7 -127L94 134H255L119 -127H-7Z" />
<glyph unicode="-" glyph-name="hyphen" horiz-adv-x="357" d="M45 202V322H312V202H45Z" />
<glyph unicode="." glyph-name="period" horiz-adv-x="258" d="M40 44T40 81T66 144T129 170T192 144T218 81T192 18T129 -8T66 18Z" />
<glyph unicode="/" glyph-name="slash" horiz-adv-x="464" d="M-2 -103L357 707H509L149 -103H-2Z" />
<glyph unicode="0" glyph-name="zero" horiz-adv-x="547" d="M35 330Q35 486 95 577T273 668T451 577T512 330Q512 176 452 84T273 -8T95 83T35 330ZM184 538T184 330T273 122Q363 122 363 330T273 538Q184 538 184 330Z" />
<glyph unicode="1" glyph-name="one" horiz-adv-x="380" d="M10 398V547L194 654H320V0H175V497L10 398Z" />
<glyph unicode="2" glyph-name="two" horiz-adv-x="501" d="M234 124H466V0H30V113Q138 187 220 277T303 436Q303 478 278 502T202 527Q117 527 41 464V605Q74 629 127 646T231 663Q333 663 393 610T454 460Q454 287 234 124Z" />
<glyph unicode="3" glyph-name="three" horiz-adv-x="483" d="M56 490V626Q130 663 205 663Q311 663 373 613T435 481Q435 370 334 328Q448 301 448 180Q448 96 385 46T207 -5Q100 -5 30 29V169Q110 125 195 125Q244 125 271 146T299 199Q299 272 164 272H129V392H164Q217
392 251 410T285 464Q285 533 195 533Q126 533 56 490Z" />
<glyph unicode="4" glyph-name="four" horiz-adv-x="562" d="M173 263H317V559L173 263ZM542 263V139H462V0H317V139H30V263L230 656H462V263H542Z" />
<glyph unicode="5" glyph-name="five" horiz-adv-x="500" d="M205 532V421Q227 424 249 424Q356 424 413 369T470 219Q470 117 403 56T211 -6Q102 -6 35 29V167Q103 125 187 125Q321 125 321 221Q321 257 294 278T211 299Q134 299 63 266V656H430V532H205Z" />
<glyph unicode="6" glyph-name="six" horiz-adv-x="537" d="M280 110Q319 110 341 137T363 209Q363 250 342 274T281 299Q227 299 186 256Q197 110 280 110ZM461 650V515Q422 536 370 536Q299 536 254 493T192 376Q246 422 321 422Q407 422 459 365T512 212Q512
113 450 47T279 -20Q158 -20 97 66T35 299Q35 466 126 566T358 666Q411 666 461 650Z" />
<glyph unicode="7" glyph-name="seven" horiz-adv-x="480" d="M20 655H460V531L206 0H52L307 531H20V655Z" />
<glyph unicode="8" glyph-name="eight" horiz-adv-x="545" d="M271 106Q317 106 340 128T364 183Q364 219 340 242T271 265Q226 265 204 240T181 181Q181 150 202 128T271 106ZM270 550Q230 550 211 528T192 473Q192 435 215 414T273 393Q307 393 330 414T353
473Q353 550 270 550ZM417 333Q510 290 510 182Q510 96 444 43T270 -10Q162 -10 99 40T35 177Q35 283 130 330Q45 379 45 471T108 614T270 666Q372 666 435 617T499 471Q499 381 417 333Z" />
<glyph unicode="9" glyph-name="nine" horiz-adv-x="533" d="M254 346Q314 346 351 391Q339 533 255 533Q216 533 193 508T169 438Q169 398 192 372T254 346ZM67 11V149Q119 124 170 124Q248 124 291 159T347 271Q304 228 217 228Q129 228 75 284T20 435Q20 533
81 598T248 663Q365 663 431 579T498 348Q498 169 413 81T186 -8Q118 -8 67 11Z" />
<glyph unicode=":" glyph-name="colon" horiz-adv-x="286" d="M55 382T55 419T80 481T143 507T205 482T231 419T206 357T143 331T81 356ZM55 51T55 88T80 150T143 176T205 151T231 88T206 26T143 0T81 25Z" />
<glyph unicode=";" glyph-name="semicolon" horiz-adv-x="294" d="M73 382T73 419T98 481T161 507T223 482T249 419T224 357T161 331T99 356ZM-7 -127L94 134H255L119 -127H-7Z" />
<glyph unicode="&lt;" glyph-name="less" horiz-adv-x="589" d="M45 271V409L544 587V443L190 340L544 237V93L45 271Z" />
<glyph unicode="=" glyph-name="equal" horiz-adv-x="589" d="M45 394V514H544V394H45ZM45 166V286H544V166H45Z" />
<glyph unicode="&gt;" glyph-name="greater" horiz-adv-x="589" d="M544 409V271L45 93V237L399 340L45 443V587L544 409Z" />
<glyph unicode="?" glyph-name="question" horiz-adv-x="458" d="M65 517V654Q125 682 218 682Q312 682 370 633T428 499Q428 454 410 418T365 361T312 329T265 318L262 236H129L126 387Q280 387 280 481Q280 517 259 538T195 560Q130 560 65 517ZM103 45T103
83T129 147T194 174T258 148T285 83T259 19T194 -8T130 18Z" />
<glyph unicode="@" glyph-name="at" horiz-adv-x="977" d="M476 105Q509 105 537 130T576 204Q576 210 576 224T577 244Q571 291 546 315T488 340Q446 340 417 305T387 207Q387 161 413 133T476 105ZM668 -52L664 -175Q572 -216 468 -216Q334 -216 235 -158T88
-6T40 200Q40 329 105 438T280 609T519 671Q631 671 726 625T882 488T942 277Q942 159 883 80T739 0Q621 0 586 109Q566 56 526 29T434 1Q353 1 306 62T259 213Q259 317 320 380T464 444Q545 444 584 371Q588 420 589 442H705L704 422Q692 242 692 221Q692 113
743 113Q778 113 800 154T822 267Q822 409 736 481T514 553Q411 553 331 502T209 369T168 196Q168 61 254 -18T467 -98Q572 -98 668 -52Z" />
<glyph unicode="A" glyph-name="A" horiz-adv-x="690" d="M262 262H424L417 286Q388 384 370 453T347 542L343 562Q335 507 269 286L262 262ZM502 0L461 138H225L184 0H23L248 674H442L667 0H502Z" />
<glyph unicode="B" glyph-name="B" horiz-adv-x="605" d="M219 123H300Q414 123 414 201T301 279H219V123ZM219 551V400H276Q336 400 366 422T397 480Q397 551 301 551H219ZM65 674H327Q438 674 496 622T554 488Q554 435 526 395T453 341Q570 306 570 183Q570
103 513 52T356 0H65V674Z" />
<glyph unicode="C" glyph-name="C" horiz-adv-x="613" d="M563 645V497Q488 543 396 543Q315 543 260 487T205 335Q205 242 260 188T402 133Q496 133 563 181V30Q502 -8 387 -8Q239 -8 140 87T40 335Q40 489 136 586T388 683Q502 683 563 645Z" />
<glyph unicode="D" glyph-name="D" horiz-adv-x="683" d="M223 126H293Q386 126 436 184T487 348Q487 438 436 492T292 547H223V126ZM65 674H297Q449 674 546 581T643 348Q643 186 548 93T295 0H65V674Z" />
<glyph unicode="E" glyph-name="E" horiz-adv-x="544" d="M220 123H484V0H65V674H480V551H220V398H452V276H220V123Z" />
<glyph unicode="F" glyph-name="F" horiz-adv-x="506" d="M476 551H220V377H443V254H220V0H65V674H476V551Z" />
<glyph unicode="G" glyph-name="G" horiz-adv-x="706" d="M646 402V62Q550 -8 404 -8Q242 -8 141 85T40 338Q40 496 145 591T413 686Q527 686 610 644V490Q514 545 413 545Q318 545 262 489T206 338Q206 243 261 187T411 131Q454 131 496 144V271H387V402H646Z" />
<glyph unicode="H" glyph-name="H" horiz-adv-x="686" d="M466 674H621V0H466V269H219V0H65V674H219V400H466V674Z" />
<glyph unicode="I" glyph-name="I" horiz-adv-x="304" d="M75 0V674H229V0H75Z" />
<glyph unicode="J" glyph-name="J" horiz-adv-x="392" d="M30 19V155Q67 132 107 132Q178 132 178 208V673H332V204Q332 107 281 53T137 -1Q68 -1 30 19Z" />
<glyph unicode="K" glyph-name="K" horiz-adv-x="662" d="M65 0V674H219V0H65ZM406 337L645 0H452L226 335L444 674H627L406 337Z" />
<glyph unicode="L" glyph-name="L" horiz-adv-x="488" d="M219 135H468V0H65V674H219V135Z" />
<glyph unicode="M" glyph-name="M" horiz-adv-x="893" d="M50 0L108 674H277L371 430Q395 369 412 318T434 246L439 226Q455 292 509 430L604 674H773L843 0H689L664 261L651 458Q625 383 579 261L484 7H393L299 261Q276 323 260 372T239 440L234 458Q234 387
225 261L204 0H50Z" />
<glyph unicode="N" glyph-name="N" horiz-adv-x="697" d="M65 0V674H234L391 395Q424 336 448 285T480 212L488 190Q478 264 478 395V674H632V0H463L302 279Q270 333 246 385T212 463L204 488Q219 398 219 279V0H65Z" />
<glyph unicode="O" glyph-name="O" horiz-adv-x="736" d="M40 339Q40 494 129 589T368 685Q518 685 607 590T696 339Q696 184 607 89T368 -7Q218 -7 129 88T40 339ZM205 434T205 339T249 189T368 133T487 188T531 339T487 489T368 545T249 490Z" />
<glyph unicode="P" glyph-name="P" horiz-adv-x="563" d="M219 340H270Q392 340 392 451Q392 551 279 551H219V340ZM65 674H297Q409 674 478 611T548 451Q548 340 476 279T297 218H219V0H65V674Z" />
<glyph unicode="Q" glyph-name="Q" horiz-adv-x="741" d="M205 434T205 339T249 189T368 133T487 188T531 339T487 489T368 545T249 490ZM738 -84L563 -151L364 -7Q216 -6 128 89T40 339T129 589T368 685Q518 685 607 590T696 339Q696 233 653 153T532 31L738 -84Z" />
<glyph unicode="R" glyph-name="R" horiz-adv-x="614" d="M219 549V359H292Q392 359 392 457Q392 500 366 524T295 549H219ZM412 0L266 234H219V0H65V674H298Q411 674 479 614T548 458Q548 314 425 259L596 0H412Z" />
<glyph unicode="S" glyph-name="S" horiz-adv-x="514" d="M454 644V500Q373 547 286 547Q247 547 227 531T206 490T231 446T306 404Q337 390 357 380T404 351T446 312T473 261T484 196Q484 105 417 49T239 -8Q120 -8 45 34V189Q136 123 239 123Q274 123 297 141T320
190Q320 200 317 209T306 226T291 239T269 252T244 265T215 279T183 293Q118 323 79 367T39 484Q39 571 103 624T280 678Q381 678 454 644Z" />
<glyph unicode="T" glyph-name="T" horiz-adv-x="544" d="M514 674V550H350V0H195V550H30V674H514Z" />
<glyph unicode="U" glyph-name="U" horiz-adv-x="668" d="M454 260V674H608V261Q608 129 534 60T334 -10Q210 -10 135 59T60 254V674H214V255Q214 130 334 130T454 260Z" />
<glyph unicode="V" glyph-name="V" horiz-adv-x="659" d="M640 674L413 0H243L19 674H185L266 405Q288 333 304 267T325 170L330 139Q346 243 395 405L476 674H640Z" />
<glyph unicode="W" glyph-name="W" horiz-adv-x="971" d="M431 664H545L611 426Q632 351 648 287T671 195L677 168Q690 257 733 427L795 674H952L772 0H600L541 213Q520 290 507 343T490 411L488 426Q485 385 434 213L372 0H200L19 674H181L243 426Q263 346 276
282T292 192L296 168Q313 246 364 426L431 664Z" />
<glyph unicode="X" glyph-name="X" horiz-adv-x="663" d="M240 342L37 674H216L328 477Q348 514 385 581T435 674H623L419 341L636 0H453L331 210Q309 169 267 96T213 0H27L240 342Z" />
<glyph unicode="Y" glyph-name="Y" horiz-adv-x="643" d="M630 674L397 248V0H243V247L13 674H193L234 576Q266 500 287 446T314 376L319 360Q329 405 407 576L451 674H630Z" />
<glyph unicode="Z" glyph-name="Z" horiz-adv-x="621" d="M549 674V565L245 124H561V0H60V113L362 550H66V674H549Z" />
<glyph unicode="[" glyph-name="bracketleft" horiz-adv-x="363" d="M348 580H203V-68H348V-196H65V707H348V580Z" />
<glyph unicode="\" glyph-name="backslash" horiz-adv-x="464" d="M107 707L466 -103H315L-45 707H107Z" />
<glyph unicode="]" glyph-name="bracketright" horiz-adv-x="363" d="M298 707V-196H15V-68H160V580H15V707H298Z" />
<glyph unicode="^" glyph-name="asciicircum" horiz-adv-x="491" d="M458 332H323L246 478L168 332H33L184 594H307L458 332Z" />
<glyph unicode="_" glyph-name="underscore" horiz-adv-x="546" d="M20 -166V-45H526V-166H20Z" />
<glyph unicode="`" glyph-name="grave" horiz-adv-x="500" d="M280 798L366 621H245L134 798H280Z" />
<glyph unicode="a" glyph-name="a" horiz-adv-x="516" d="M311 208H264Q227 208 207 192T187 151Q187 100 246 100Q277 100 294 119T311 171V208ZM74 351V482Q134 516 247 516Q355 516 408 470T461 325V0H318V62Q286 -3 192 -3Q118 -3 77 39T35 144Q35 217 88
257T247 298H311V333Q311 397 226 397Q144 397 74 351Z" />
<glyph unicode="b" glyph-name="b" horiz-adv-x="611" d="M318 116Q364 116 396 153T428 252Q428 318 397 355T319 392T240 357T206 259Q206 194 237 155T318 116ZM206 707V429Q258 513 357 513Q452 513 514 444T576 255Q576 148 517 71T358 -6Q257 -6 206 79V0H60V707H206Z"
/>
<glyph unicode="c" glyph-name="c" horiz-adv-x="469" d="M183 252Q187 185 223 148T318 111Q381 111 439 146V24Q380 -8 297 -8Q183 -8 109 64T35 252Q37 366 109 440T306 515Q383 515 439 486V361Q386 394 321 394Q260 394 222 358T183 252Z" />
<glyph unicode="d" glyph-name="d" horiz-adv-x="611" d="M293 116Q343 116 374 155T405 259Q405 322 372 357T292 392T215 355T183 252Q183 191 215 154T293 116ZM405 707H551V0H405V79Q354 -6 253 -6Q154 -6 95 71T35 255Q35 375 97 444T254 513Q353 513 405 429V707Z" />
<glyph unicode="e" glyph-name="e" horiz-adv-x="533" d="M353 300V312Q346 401 275 401Q240 401 213 376T177 300H353ZM458 151V29Q406 -5 299 -5Q174 -5 105 67T35 254Q35 375 102 443T269 512Q371 512 430 453T489 275Q489 252 481 196H183Q198 154 235 131T324
108Q401 108 458 151Z" />
<glyph unicode="f" glyph-name="f" horiz-adv-x="346" d="M366 710V592Q338 603 314 603Q277 603 259 586T241 526V507H336V400H241V0H96V400H30V507H96V526Q96 618 147 669T290 720Q337 720 366 710Z" />
<glyph unicode="g" glyph-name="g" horiz-adv-x="585" d="M285 133Q332 133 358 168T385 254Q385 390 286 390Q242 390 217 356T192 262Q192 199 216 166T285 133ZM385 507H530V49Q530 -73 457 -134T274 -196Q167 -196 87 -158V-9Q157 -65 259 -65Q325 -65 355
-37T385 51V85Q341 17 245 17Q161 17 101 79T40 263Q40 371 98 441T252 512Q342 512 385 440V507Z" />
<glyph unicode="h" glyph-name="h" horiz-adv-x="580" d="M206 707V421Q245 512 358 512Q432 512 478 465T525 323V0H379V300Q379 344 357 369T300 394Q285 394 272 390T242 374T216 335T206 268V0H60V707H206Z" />
<glyph unicode="i" glyph-name="i" horiz-adv-x="276" d="M65 0V507H211V0H65ZM53 619T53 654T78 714T138 739T198 714T223 654T198 594T138 569T78 594Z" />
<glyph unicode="j" glyph-name="j" horiz-adv-x="274" d="M-40 -182V-71Q-7 -86 17 -86Q69 -86 69 -19V507H214V-21Q214 -101 169 -149T39 -198Q4 -198 -40 -182ZM56 619T56 654T81 714T141 739T201 714T226 654T201 594T141 569T81 594Z" />
<glyph unicode="k" glyph-name="k" horiz-adv-x="548" d="M537 0H368L206 249V0H60V690H206V280L366 507H534L358 264L537 0Z" />
<glyph unicode="l" glyph-name="l" horiz-adv-x="276" d="M65 0V707H211V0H65Z" />
<glyph unicode="m" glyph-name="m" horiz-adv-x="859" d="M206 507V428Q248 512 349 512Q456 512 491 416Q508 461 548 486T642 512Q717 512 760 465T804 325V0H658V301Q658 344 641 369T592 394Q558 394 532 367T505 268V0H359V301Q359 344 342 369T293 394Q259
394 233 367T206 268V0H60V507H206Z" />
<glyph unicode="n" glyph-name="n" horiz-adv-x="580" d="M206 507V421Q225 463 264 487T359 512Q437 512 481 466T525 329V0H379V302Q379 347 358 370T299 394Q259 394 233 363T206 268V0H60V507H206Z" />
<glyph unicode="o" glyph-name="o" horiz-adv-x="567" d="M284 -8Q165 -8 100 63T35 247Q35 364 103 439T284 515Q402 515 467 442T532 256Q532 141 467 67T284 -8ZM283 400Q235 400 211 359T187 253T211 147T285 105Q333 105 356 145T380 251Q380 400 283 400Z" />
<glyph unicode="p" glyph-name="p" horiz-adv-x="611" d="M320 116Q368 116 398 152T428 252Q428 321 398 356T320 392Q274 392 240 357T206 259Q206 194 238 155T320 116ZM206 507V429Q259 513 359 513Q457 513 516 444T576 255Q576 142 519 68T359 -6Q256 -6
206 75V-187H60V507H206Z" />
<glyph unicode="q" glyph-name="q" horiz-adv-x="611" d="M293 116Q343 116 374 155T405 259Q405 322 372 357T292 392T215 355T183 252Q183 191 215 154T293 116ZM405 507H551V-187H405V79Q354 -6 253 -6Q151 -6 93 68T35 255Q35 374 95 443T254 513T405 429V507Z" />
<glyph unicode="r" glyph-name="r" horiz-adv-x="370" d="M205 507V413Q219 457 251 483T327 510Q351 510 365 506V368Q341 379 310 379Q263 379 234 345T205 253V0H59L60 507H205Z" />
<glyph unicode="s" glyph-name="s" horiz-adv-x="436" d="M380 492V367Q327 398 256 398Q230 398 216 388T202 361Q202 352 207 344T223 329T245 317T274 303T304 289Q350 265 378 234T406 153Q406 78 352 37T209 -4Q117 -4 55 27V157Q124 109 201 109Q256 109
256 144Q256 153 251 161T234 176T212 187T183 200T154 213Q53 261 53 357Q53 431 109 472T250 513Q328 513 380 492Z" />
<glyph unicode="t" glyph-name="t" horiz-adv-x="386" d="M229 400V167Q229 140 244 126T285 112Q325 112 356 132V11Q319 -5 256 -5Q83 -5 83 168V400H10V507H83V627H229V507H347V400H229Z" />
<glyph unicode="u" glyph-name="u" horiz-adv-x="580" d="M374 507H520V0H374V81Q334 -4 220 -4Q142 -4 99 39T55 168V507H201V201Q201 112 279 112Q374 112 374 239V507Z" />
<glyph unicode="v" glyph-name="v" horiz-adv-x="536" d="M192 0L5 507H158L224 291Q239 241 250 197T264 132L268 113Q277 178 313 291L381 507H531L342 0H192Z" />
<glyph unicode="w" glyph-name="w" horiz-adv-x="806" d="M168 0L5 507H156L200 340Q216 277 227 227T240 157L243 138Q250 198 292 340L341 507H467L515 340Q533 276 545 226T560 156L563 138Q570 197 610 340L657 507H801L639 0H489L445 166Q431 220 421 267T407
334L404 354Q394 287 362 166L318 0H168Z" />
<glyph unicode="x" glyph-name="x" horiz-adv-x="526" d="M340 253L509 0H350L265 152L174 0H16L197 254L27 507H189L271 356L362 507H522L340 253Z" />
<glyph unicode="y" glyph-name="y" horiz-adv-x="532" d="M201 8L5 507H164L219 349Q240 288 253 244T270 186L273 172Q284 212 327 349L377 507H527L344 15Q265 -198 103 -198Q72 -198 47 -193V-77Q63 -81 81 -81Q164 -81 201 8Z" />
<glyph unicode="z" glyph-name="z" horiz-adv-x="479" d="M427 507V406L205 113H439V0H40V105L262 395H49V507H427Z" />
<glyph unicode="{" glyph-name="braceleft" horiz-adv-x="380" d="M40 325H57Q96 325 119 354T142 421Q142 437 136 475T130 535Q130 613 174 664T289 715Q320 715 355 703V568Q340 577 324 577Q303 577 288 562T273 522Q273 510 279 471T285 407Q285 346 251
304T169 255Q216 249 250 206T285 102Q285 78 279 39T273 -13Q273 -37 288 -52T324 -68Q340 -68 355 -59V-194Q320 -206 289 -206Q219 -206 175 -155T130 -26Q130 -4 136 34T142 88Q142 126 119 155T57 185L40 184V325Z" />
<glyph unicode="|" glyph-name="bar" horiz-adv-x="280" d="M70 -194V695H210V-194H70Z" />
<glyph unicode="}" glyph-name="braceright" horiz-adv-x="380" d="M323 325H340V184Q333 185 323 185Q284 185 261 156T238 88Q238 72 244 34T250 -26Q250 -104 206 -155T91 -206Q60 -206 25 -194V-59Q40 -68 56 -68Q77 -68 92 -53T107 -13Q107 -1 101 38T95
102Q95 163 129 206T211 255Q164 261 130 303T95 407Q95 431 101 470T107 522Q107 546 92 561T56 577Q40 577 25 568V703Q60 715 91 715Q161 715 205 664T250 535Q250 513 244 475T238 421Q238 383 261 354T323 325Z" />
<glyph unicode="~" glyph-name="asciitilde" horiz-adv-x="654" d="M524 379L625 298Q548 189 452 189Q395 189 331 213T232 238Q199 238 177 224T129 180L28 260Q59 304 104 336T200 369Q266 369 331 345T421 320Q454 320 476 334T524 379Z" />
<glyph unicode="&#xa0;" glyph-name="uni00A0" horiz-adv-x="250" />
<glyph unicode="&#xa1;" glyph-name="exclamdown" horiz-adv-x="289" d="M52 388T52 426T78 490T143 517T207 491T234 426T208 362T143 335T79 361ZM75 -165V273H214V-165H75Z" />
<glyph unicode="&#xa2;" glyph-name="cent" horiz-adv-x="478" d="M438 483V361Q385 394 320 394Q258 394 219 357T178 252Q182 186 219 149T317 111Q380 111 438 146V24Q403 6 359 -2V-111H238V-3Q146 15 88 84T30 252Q32 349 86 419T237 508V620H359V510Q402
502 438 483Z" />
<glyph unicode="&#xa3;" glyph-name="sterling" horiz-adv-x="540" d="M215 123H507V0H45V121Q118 159 118 251V267H44V373H104Q101 397 101 420Q101 533 160 596T335 660Q420 660 472 628V490Q426 523 368 523Q263 523 263 414Q263 401 265 373H431V267H276V250Q276
162 215 123Z" />
<glyph unicode="&#xa4;" glyph-name="currency" horiz-adv-x="571" d="M58 311Q58 370 86 421L28 478L113 560L171 503Q222 531 286 531Q348 531 400 504L458 560L543 478L485 421Q514 368 514 311Q514 252 484 199L543 142L458 60L399 116Q349 90 286 90Q222
90 171 117L113 60L28 142L87 199Q58 251 58 311ZM180 355T180 311T210 236T286 204T362 235T392 311T362 386T286 418T210 387Z" />
<glyph unicode="&#xa5;" glyph-name="yen" horiz-adv-x="635" d="M626 655L456 361H568V271H404L393 252V207H568V117H393V0H239V117H66V207H239V252L228 271H66V361H177L9 655H189L315 409L447 655H626Z" />
<glyph unicode="&#xa6;" glyph-name="brokenbar" horiz-adv-x="280" d="M210 369H70V707H210V369ZM210 -117H70V221H210V-117Z" />
<glyph unicode="&#xa7;" glyph-name="section" horiz-adv-x="599" d="M228 322L216 328Q205 309 205 291Q205 263 231 242T324 192Q357 178 375 168Q383 184 383 200Q383 214 378 225T365 245T341 264T311 280T272 300T228 322ZM479 645V501Q396 549 311 549Q234
549 234 500Q234 492 236 485T246 472T261 460T284 446T313 430T351 411T395 388Q464 352 497 310T531 197Q531 132 489 82Q520 41 520 -8Q520 -91 456 -139T280 -187Q161 -187 86 -145V10Q177 -56 280 -56Q362 -56 362 -8Q362 18 332 37T178 111Q57 165 57 294Q57
356 103 411Q73 449 73 499Q73 581 134 630T305 680Q403 680 479 645Z" />
<glyph unicode="&#xa8;" glyph-name="dieresis" horiz-adv-x="500" d="M33 710Q33 744 56 767T116 791Q151 791 174 768T198 710Q198 675 175 652T116 628Q80 628 57 651T33 710ZM301 710Q301 744 324 767T384 791Q419 791 443 768T467 710Q467 675 443 652T384
628Q348 628 325 651T301 710Z" />
<glyph unicode="&#xa9;" glyph-name="copyright" horiz-adv-x="761" d="M35 195T35 338T136 582T381 683T625 582T726 338Q726 195 625 94T381 -8T137 93ZM132 337Q132 228 202 158T381 88Q488 88 558 158T629 337Q629 444 559 514T381 585Q273 585 203 515T132
337ZM334 337Q336 302 356 283T405 263Q448 263 487 287V192Q448 171 391 171Q322 171 272 217T221 337Q222 412 269 459T397 506Q446 506 487 484V390Q452 412 407 412Q379 412 357 393T334 337Z" />
<glyph unicode="&#xaa;" glyph-name="ordfeminine" horiz-adv-x="400" d="M244 568H203Q172 568 155 555T138 519Q138 476 189 476Q214 476 229 492T244 536V568ZM42 689V800Q94 828 189 828Q281 828 325 789T370 668V392H250V444Q224 389 142 389Q80 389 45 424T10
514Q10 575 55 610T189 645H244V673Q244 727 171 727Q102 727 42 689Z" />
<glyph unicode="&#xab;" glyph-name="guillemotleft" horiz-adv-x="592" d="M330 415L184 253L330 91H178L26 253L178 415H330ZM550 415L404 253L550 91H398L246 253L398 415H550Z" />
<glyph unicode="&#xac;" glyph-name="logicalnot" horiz-adv-x="603" d="M558 136H438V301H45V417H558V136Z" />
<glyph unicode="&#xad;" glyph-name="uni00AD" horiz-adv-x="357" d="M45 202V322H312V202H45Z" />
<glyph unicode="&#xae;" glyph-name="registered" horiz-adv-x="492" d="M228 632V571H250Q263 571 270 580T278 602Q278 632 246 632H228ZM174 677H244Q335 677 335 602Q335 554 297 536L357 440H291L241 526H228V440H174V677ZM247 376Q326 376 373 424T421 551T374
679T247 728Q167 728 120 679T72 551T119 424T247 376ZM246 786Q348 786 415 720T482 551T415 383T246 317Q143 317 77 382T10 551T76 720T246 786Z" />
<glyph unicode="&#xaf;" glyph-name="overscore" horiz-adv-x="500" d="M428 651H72V750H428V651Z" />
<glyph unicode="&#xb0;" glyph-name="degree" horiz-adv-x="440" d="M30 416T30 495T85 629T220 685T354 630T410 495T355 361T220 305T86 360ZM132 531T132 495T158 433T220 407T282 433T308 495T282 557T220 583T158 557Z" />
<glyph unicode="&#xb1;" glyph-name="plusminus" horiz-adv-x="589" d="M45 28V148H544V28H45ZM361 446H544V326H361V186H227V326H45V446H227V585H361V446Z" />
<glyph unicode="&#xb2;" glyph-name="twosuperior" horiz-adv-x="365" d="M35 392V469Q107 521 156 577T205 677Q205 728 144 728Q97 728 45 691V796Q97 829 162 829Q231 829 273 793T316 692Q316 577 168 482H330V392H35Z" />
<glyph unicode="&#xb3;" glyph-name="threesuperior" horiz-adv-x="353" d="M109 654H123Q200 654 200 695T148 736Q97 736 51 701V802Q98 829 158 829Q229 829 270 796T311 708Q311 669 290 644T230 610Q268 606 293 580T318 510Q318 455 277 422T165 388Q85
388 35 415V509Q92 479 148 479Q176 479 192 492T209 524Q209 565 124 565H109V654Z" />
<glyph unicode="&#xb4;" glyph-name="acute" horiz-adv-x="500" d="M134 621L220 798H366L255 621H134Z" />
<glyph unicode="&#xb5;" glyph-name="uni00B5" horiz-adv-x="585" d="M379 507H525V0H379V60Q345 -4 275 -4Q239 -4 206 10V-180H60V507H206V201Q206 158 231 135T294 112Q338 112 358 140T379 239V507Z" />
<glyph unicode="&#xb6;" glyph-name="paragraph" horiz-adv-x="592" d="M324 674V-148H213V317Q116 317 63 369T10 497Q10 571 64 622T232 674H324ZM416 -148L417 674H527V-148H416Z" />
<glyph unicode="&#xb7;" glyph-name="middot" horiz-adv-x="268" d="M45 215T45 252T71 315T134 341T197 315T223 252T197 189T134 163T71 189Z" />
<glyph unicode="&#xb8;" glyph-name="cedilla" horiz-adv-x="500" d="M339 -125Q339 -188 294 -228T160 -268V-177Q196 -177 215 -160T235 -113Q235 -85 209 -51H322Q339 -78 339 -125Z" />
<glyph unicode="&#xb9;" glyph-name="onesuperior" horiz-adv-x="279" d="M10 651V749L144 825H229V392H126V713L10 651Z" />
<glyph unicode="&#xba;" glyph-name="ordmasculine" horiz-adv-x="442" d="M222 386Q120 386 65 447T10 602Q10 702 67 766T222 830Q323 830 377 768T432 610Q432 512 377 449T222 386ZM220 733Q179 733 159 698T139 607Q139 552 160 517T223 482Q264 482 283
516T303 605Q303 733 220 733Z" />
<glyph unicode="&#xbb;" glyph-name="guillemotright" horiz-adv-x="591" d="M193 415L345 253L193 91H41L187 253L41 415H193ZM413 415L565 253L413 91H261L407 253L261 415H413Z" />
<glyph unicode="&#xbc;" glyph-name="onequarter" horiz-adv-x="829" d="M126 278V599L10 537V635L144 711H229V278H126ZM552 711H660L232 0H123L552 711ZM578 171H667V353L578 171ZM821 171V86H769V0H667V86H473V171L606 430H769V171H821Z" />
<glyph unicode="&#xbd;" glyph-name="onehalf" horiz-adv-x="833" d="M522 0V77Q594 129 643 185T692 285Q692 336 631 336Q584 336 532 299V404Q584 437 649 437Q718 437 760 401T803 300Q803 185 655 90H817V0H522ZM10 537V635L144 711H229V278H126V599L10 537ZM123
0L552 711H660L232 0H123Z" />
<glyph unicode="&#xbe;" glyph-name="threequarters" horiz-adv-x="898" d="M39 586V687Q85 714 146 714Q217 714 258 681T299 593Q299 554 278 529T218 495Q256 491 281 465T306 395Q306 340 265 307T153 273Q73 273 23 300V394Q80 364 136 364Q164 364 180 377T197
409Q197 450 112 450H97V539H111Q188 539 188 580T136 621Q85 621 39 586ZM605 711H713L285 0H176L605 711ZM631 171H720V353L631 171ZM874 171V86H822V0H720V86H526V171L659 430H822V171H874Z" />
<glyph unicode="&#xbf;" glyph-name="questiondown" horiz-adv-x="458" d="M428 -7V-144Q368 -172 275 -172Q181 -172 123 -123T65 11Q65 56 83 92T128 149T181 181T228 192L231 274H364L367 123Q213 123 213 29Q213 -7 234 -28T298 -50Q363 -50 428 -7ZM390 465T390
427T364 363T299 336T235 362T208 427T234 491T299 518T363 492Z" />
<glyph unicode="&#xc0;" glyph-name="Agrave" horiz-adv-x="690" d="M406 721H285L174 898H320L406 721ZM262 262H424L417 286Q388 384 370 453T347 542L343 562Q335 507 269 286L262 262ZM502 0L461 138H225L184 0H23L248 674H442L667 0H502Z" />
<glyph unicode="&#xc1;" glyph-name="Aacute" horiz-adv-x="690" d="M527 898L416 721H295L381 898H527ZM262 262H424L417 286Q388 384 370 453T347 542L343 562Q335 507 269 286L262 262ZM502 0L461 138H225L184 0H23L248 674H442L667 0H502Z" />
<glyph unicode="&#xc2;" glyph-name="Acircumflex" horiz-adv-x="690" d="M346 817L267 721H128L284 898H408L564 721H425L346 817ZM262 262H424L417 286Q388 384 370 453T347 542L343 562Q335 507 269 286L262 262ZM502 0L461 138H225L184 0H23L248 674H442L667 0H502Z" />
<glyph unicode="&#xc3;" glyph-name="Atilde" horiz-adv-x="690" d="M471 887L545 826Q502 741 409 741Q376 741 340 758T289 776Q264 776 250 768T214 733L149 797Q165 831 196 855T265 879Q301 879 341 862T401 844Q450 844 471 887ZM262 262H424L417 286Q388
384 370 453T347 542L343 562Q335 507 269 286L262 262ZM502 0L461 138H225L184 0H23L248 674H442L667 0H502Z" />
<glyph unicode="&#xc4;" glyph-name="Adieresis" horiz-adv-x="690" d="M486 728Q450 728 427 751T403 810Q403 844 426 867T486 891Q521 891 545 868T569 810Q569 775 545 752T486 728ZM218 728Q182 728 159 751T135 810Q135 844 158 867T218 891Q253 891 276
868T300 810Q300 775 277 752T218 728ZM262 262H424L417 286Q388 384 370 453T347 542L343 562Q335 507 269 286L262 262ZM502 0L461 138H225L184 0H23L248 674H442L667 0H502Z" />
<glyph unicode="&#xc5;" glyph-name="Aring" horiz-adv-x="690" d="M372 905T349 905T311 889T296 849T311 810T349 793T387 809T402 849T387 888ZM405 710T349 710T253 750T213 846T253 942T349 982T445 942T485 846T445 750ZM262 262H424L417 286Q388 384 370
453T347 542L343 562Q335 507 269 286L262 262ZM502 0L461 138H225L184 0H23L248 674H442L667 0H502Z" />
<glyph unicode="&#xc6;" glyph-name="AE" horiz-adv-x="940" d="M301 262H467V614Q426 508 313 286L301 262ZM616 123H880V0H467V138H238L169 0H8L333 674H876V551H616V398H848V276H616V123Z" />
<glyph unicode="&#xc7;" glyph-name="Ccedilla" horiz-adv-x="613" d="M318 -51H431Q448 -78 448 -125Q448 -188 403 -228T269 -268V-177Q305 -177 324 -160T344 -113Q344 -85 318 -51ZM563 645V497Q488 543 396 543Q315 543 260 487T205 335Q205 242 260 188T402
133Q496 133 563 181V30Q502 -8 387 -8Q239 -8 140 87T40 335Q40 489 136 586T388 683Q502 683 563 645Z" />
<glyph unicode="&#xc8;" glyph-name="Egrave" horiz-adv-x="544" d="M346 721H225L114 898H260L346 721ZM220 123H484V0H65V674H480V551H220V398H452V276H220V123Z" />
<glyph unicode="&#xc9;" glyph-name="Eacute" horiz-adv-x="544" d="M454 898L343 721H222L308 898H454ZM220 123H484V0H65V674H480V551H220V398H452V276H220V123Z" />
<glyph unicode="&#xca;" glyph-name="Ecircumflex" horiz-adv-x="544" d="M272 817L193 721H54L210 898H334L490 721H351L272 817ZM220 276V123H484V0H65V674H480V551H220V398H452V276H220Z" />
<glyph unicode="&#xcb;" glyph-name="Edieresis" horiz-adv-x="544" d="M406 727Q370 727 347 750T323 809Q323 843 346 866T406 890Q441 890 465 867T489 809Q489 774 465 751T406 727ZM138 727Q102 727 79 750T55 809Q55 843 78 866T138 890Q173 890 196 867T220
809Q220 774 197 751T138 727ZM220 276V123H484V0H65V674H480V551H220V398H452V276H220Z" />
<glyph unicode="&#xcc;" glyph-name="Igrave" horiz-adv-x="304" d="M75 0V674H229V0H75ZM122 898L208 721H87L-24 898H122Z" />
<glyph unicode="&#xcd;" glyph-name="Iacute" horiz-adv-x="304" d="M75 0V674H229V0H75ZM94 721L180 898H326L215 721H94Z" />
<glyph unicode="&#xce;" glyph-name="Icircumflex" horiz-adv-x="304" d="M92 898H216L372 721H233L154 817L75 721H-64L92 898ZM75 0V674H229V0H75Z" />
<glyph unicode="&#xcf;" glyph-name="Idieresis" horiz-adv-x="304" d="M75 0V674H229V0H75ZM-59 810Q-59 844 -36 867T24 891Q59 891 82 868T106 810Q106 775 83 752T24 728Q-12 728 -35 751T-59 810ZM209 810Q209 844 232 867T292 891Q327 891 351 868T375 810Q375
775 351 752T292 728Q256 728 233 751T209 810Z" />
<glyph unicode="&#xd0;" glyph-name="Eth" horiz-adv-x="749" d="M289 126H359Q452 126 502 184T553 348Q553 438 502 492T358 547H289V393H427V269H289V126ZM131 674H363Q515 674 612 581T709 348Q709 186 614 93T361 0H131V269H65V393H131V674Z" />
<glyph unicode="&#xd1;" glyph-name="Ntilde" horiz-adv-x="697" d="M65 0V674H234L391 395Q424 336 448 285T480 212L488 190Q478 264 478 395V674H632V0H463L302 279Q270 333 246 385T212 463L204 488Q219 398 219 279V0H65ZM478 887L552 826Q510 741 416 741Q383
741 347 758T296 776Q271 776 257 768T221 733L156 797Q172 831 203 855T272 879Q308 879 348 862T408 844Q456 844 478 887Z" />
<glyph unicode="&#xd2;" glyph-name="Ograve" horiz-adv-x="736" d="M40 339Q40 494 129 589T368 685Q518 685 607 590T696 339Q696 184 607 89T368 -7Q218 -7 129 88T40 339ZM205 434T205 339T249 189T368 133T487 188T531 339T487 489T368 545T249 490ZM352
898L438 721H317L206 898H352Z" />
<glyph unicode="&#xd3;" glyph-name="Oacute" horiz-adv-x="736" d="M311 721L397 898H543L432 721H311ZM40 339Q40 494 129 589T368 685Q518 685 607 590T696 339Q696 184 607 89T368 -7Q218 -7 129 88T40 339ZM205 434T205 339T249 189T368 133T487 188T531
339T487 489T368 545T249 490Z" />
<glyph unicode="&#xd4;" glyph-name="Ocircumflex" horiz-adv-x="736" d="M205 434T205 339T249 189T368 133T487 188T531 339T487 489T368 545T249 490ZM40 339Q40 494 129 589T368 685Q518 685 607 590T696 339Q696 184 607 89T368 -7Q218 -7 129 88T40 339ZM310
898H434L590 721H451L372 817L293 721H154L310 898Z" />
<glyph unicode="&#xd5;" glyph-name="Otilde" horiz-adv-x="736" d="M40 339Q40 494 129 589T368 685Q518 685 607 590T696 339Q696 184 607 89T368 -7Q218 -7 129 88T40 339ZM205 434T205 339T249 189T368 133T487 188T531 339T487 489T368 545T249 490ZM492
886L566 825Q524 740 430 740Q397 740 361 757T310 775Q285 775 271 767T235 732L170 796Q186 830 217 854T286 878Q322 878 362 861T422 843Q470 843 492 886Z" />
<glyph unicode="&#xd6;" glyph-name="Odieresis" horiz-adv-x="736" d="M160 810Q160 844 183 867T243 891Q278 891 301 868T325 810Q325 775 302 752T243 728Q207 728 184 751T160 810ZM428 810Q428 844 451 867T511 891Q546 891 570 868T594 810Q594 775 570
752T511 728Q475 728 452 751T428 810ZM40 339Q40 494 129 589T368 685Q518 685 607 590T696 339Q696 184 607 89T368 -7Q218 -7 129 88T40 339ZM205 434T205 339T249 189T368 133T487 188T531 339T487 489T368 545T249 490Z" />
<glyph unicode="&#xd7;" glyph-name="multiply" horiz-adv-x="530" d="M487 209L395 117L265 246L138 119L43 213L171 341L42 469L134 561L263 433L390 560L485 466L357 338L487 209Z" />
<glyph unicode="&#xd8;" glyph-name="Oslash" horiz-adv-x="714" d="M519 445L294 140Q326 125 366 125Q444 125 490 183T536 339Q536 400 519 445ZM214 230L441 537Q406 553 366 553Q288 553 242 495T196 339Q196 275 214 230ZM695 684L616 577Q694 485 694 339Q694
184 605 89T366 -7Q280 -7 210 27L185 -7H39L117 99Q38 192 38 339Q38 494 127 589T366 685Q455 685 525 650L550 684H695Z" />
<glyph unicode="&#xd9;" glyph-name="Ugrave" horiz-adv-x="668" d="M454 260V674H608V261Q608 129 534 60T334 -10Q210 -10 135 59T60 254V674H214V255Q214 130 334 130T454 260ZM316 898L402 721H281L170 898H316Z" />
<glyph unicode="&#xda;" glyph-name="Uacute" horiz-adv-x="668" d="M287 721L373 898H519L408 721H287ZM454 260V674H608V261Q608 129 534 60T334 -10Q210 -10 135 59T60 254V674H214V255Q214 130 334 130T454 260Z" />
<glyph unicode="&#xdb;" glyph-name="Ucircumflex" horiz-adv-x="668" d="M454 260V674H608V261Q608 129 534 60T334 -10Q210 -10 135 59T60 254V674H214V255Q214 130 334 130T454 260ZM270 898H394L550 721H411L332 817L253 721H114L270 898Z" />
<glyph unicode="&#xdc;" glyph-name="Udieresis" horiz-adv-x="668" d="M122 809Q122 843 145 866T205 890Q240 890 263 867T287 809Q287 774 264 751T205 727Q169 727 146 750T122 809ZM390 809Q390 843 413 866T473 890Q508 890 532 867T556 809Q556 774 532
751T473 727Q437 727 414 750T390 809ZM454 260V674H608V261Q608 129 534 60T334 -10Q210 -10 135 59T60 254V674H214V255Q214 130 334 130T454 260Z" />
<glyph unicode="&#xdd;" glyph-name="Yacute" horiz-adv-x="643" d="M507 898L396 721H275L361 898H507ZM630 674L397 248V0H243V247L13 674H193L234 576Q266 500 287 446T314 376L319 360Q329 405 407 576L451 674H630Z" />
<glyph unicode="&#xde;" glyph-name="Thorn" horiz-adv-x="563" d="M219 232H285Q338 232 365 261T392 336Q392 379 367 410T285 441H219V232ZM219 564H297Q410 564 479 502T548 342Q548 231 476 171T297 110H219V0H65V674H219V564Z" />
<glyph unicode="&#xdf;" glyph-name="germandbls" horiz-adv-x="598" d="M280 15V138Q331 105 381 105Q408 105 425 119T442 157Q442 177 427 195T391 228T349 259T312 298T297 351Q297 389 325 435T354 506Q354 563 292 563Q202 563 202 470V0H60V461Q60 570
118 630T283 690Q381 690 441 640T502 519Q502 481 488 451T461 401T447 366Q447 355 467 338T512 303T557 247T578 159Q578 83 529 37T397 -9Q316 -9 280 15Z" />
<glyph unicode="&#xe0;" glyph-name="agrave" horiz-adv-x="516" d="M326 554H205L94 731H240L326 554ZM311 208H264Q227 208 207 192T187 151Q187 100 246 100Q277 100 294 119T311 171V208ZM74 351V482Q134 516 247 516Q355 516 408 470T461 325V0H318V62Q286
-3 192 -3Q118 -3 77 39T35 144Q35 217 88 257T247 298H311V333Q311 397 226 397Q144 397 74 351Z" />
<glyph unicode="&#xe1;" glyph-name="aacute" horiz-adv-x="516" d="M426 731L315 554H194L280 731H426ZM311 208H264Q227 208 207 192T187 151Q187 100 246 100Q277 100 294 119T311 171V208ZM74 351V482Q134 516 247 516Q355 516 408 470T461 325V0H318V62Q286
-3 192 -3Q118 -3 77 39T35 144Q35 217 88 257T247 298H311V333Q311 397 226 397Q144 397 74 351Z" />
<glyph unicode="&#xe2;" glyph-name="acircumflex" horiz-adv-x="516" d="M256 650L177 554H38L194 731H318L474 554H335L256 650ZM311 208H264Q227 208 207 192T187 151Q187 100 246 100Q277 100 294 119T311 171V208ZM74 351V482Q134 516 247 516Q355 516 408
470T461 325V0H318V62Q286 -3 192 -3Q118 -3 77 39T35 144Q35 217 88 257T247 298H311V333Q311 397 226 397Q144 397 74 351Z" />
<glyph unicode="&#xe3;" glyph-name="atilde" horiz-adv-x="516" d="M380 720L454 659Q412 574 318 574Q285 574 249 591T198 609Q173 609 159 601T123 566L58 630Q74 664 105 688T174 712Q210 712 250 695T310 677Q358 677 380 720ZM311 208H264Q227 208 207
192T187 151Q187 100 246 100Q277 100 294 119T311 171V208ZM74 351V482Q134 516 247 516Q355 516 408 470T461 325V0H318V62Q286 -3 192 -3Q118 -3 77 39T35 144Q35 217 88 257T247 298H311V333Q311 397 226 397Q144 397 74 351Z" />
<glyph unicode="&#xe4;" glyph-name="adieresis" horiz-adv-x="516" d="M399 561Q363 561 340 584T316 643Q316 677 339 700T399 724Q434 724 458 701T482 643Q482 608 458 585T399 561ZM131 561Q95 561 72 584T48 643Q48 677 71 700T131 724Q166 724 189 701T213
643Q213 608 190 585T131 561ZM311 208H264Q227 208 207 192T187 151Q187 100 246 100Q277 100 294 119T311 171V208ZM74 351V482Q134 516 247 516Q355 516 408 470T461 325V0H318V62Q286 -3 192 -3Q118 -3 77 39T35 144Q35 217 88 257T247 298H311V333Q311 397
226 397Q144 397 74 351Z" />
<glyph unicode="&#xe5;" glyph-name="aring" horiz-adv-x="516" d="M283 738T260 738T222 722T207 682T222 643T260 626T298 642T313 682T298 721ZM316 543T260 543T164 583T124 679T164 775T260 815T356 775T396 679T356 583ZM311 208H264Q227 208 207 192T187
151Q187 100 246 100Q277 100 294 119T311 171V208ZM74 351V482Q134 516 247 516Q355 516 408 470T461 325V0H318V62Q286 -3 192 -3Q118 -3 77 39T35 144Q35 217 88 257T247 298H311V333Q311 397 226 397Q144 397 74 351Z" />
<glyph unicode="&#xe6;" glyph-name="ae" horiz-adv-x="808" d="M316 171V208H269Q232 208 212 192T192 151Q192 100 251 100Q282 100 299 119T316 171ZM632 300V311Q625 401 554 401Q520 401 493 375T456 300H632ZM760 196H461Q477 154 514 131T603 108Q680 108
737 151V29Q684 -5 585 -5Q528 -5 474 18T392 88Q376 50 333 23T218 -4Q133 -4 87 36T40 144Q40 217 93 257T252 298H316V333Q316 397 231 397Q149 397 79 351V482Q139 516 242 516Q296 516 335 496T391 442Q414 475 456 493T548 512Q650 512 709 453T768 275Q768
252 760 196Z" />
<glyph unicode="&#xe7;" glyph-name="ccedilla" horiz-adv-x="469" d="M183 252Q187 185 223 148T318 111Q381 111 439 146V24Q380 -8 297 -8Q183 -8 109 64T35 252Q37 366 109 440T306 515Q383 515 439 486V361Q386 394 321 394Q260 394 222 358T183 252ZM369
-125Q369 -188 324 -228T190 -268V-177Q226 -177 245 -160T265 -113Q265 -85 239 -51H352Q369 -78 369 -125Z" />
<glyph unicode="&#xe8;" glyph-name="egrave" horiz-adv-x="533" d="M336 554H215L104 731H250L336 554ZM353 300V312Q346 401 275 401Q240 401 213 376T177 300H353ZM458 151V29Q406 -5 299 -5Q174 -5 105 67T35 254Q35 375 102 443T269 512Q371 512 430 453T489
275Q489 252 481 196H183Q198 154 235 131T324 108Q401 108 458 151Z" />
<glyph unicode="&#xe9;" glyph-name="eacute" horiz-adv-x="533" d="M457 730L346 553H225L311 730H457ZM353 300V312Q346 401 275 401Q240 401 213 376T177 300H353ZM458 151V29Q406 -5 299 -5Q174 -5 105 67T35 254Q35 375 102 443T269 512Q371 512 430 453T489
275Q489 252 481 196H183Q198 154 235 131T324 108Q401 108 458 151Z" />
<glyph unicode="&#xea;" glyph-name="ecircumflex" horiz-adv-x="533" d="M269 650L190 554H51L207 731H331L487 554H348L269 650ZM353 300V312Q346 401 275 401Q240 401 213 376T177 300H353ZM458 151V29Q406 -5 299 -5Q174 -5 105 67T35 254Q35 375 102 443T269
512Q371 512 430 453T489 275Q489 252 481 196H183Q198 154 235 131T324 108Q401 108 458 151Z" />
<glyph unicode="&#xeb;" glyph-name="edieresis" horiz-adv-x="533" d="M418 561Q382 561 359 584T335 643Q335 677 358 700T418 724Q453 724 477 701T501 643Q501 608 477 585T418 561ZM150 561Q114 561 91 584T67 643Q67 677 90 700T150 724Q185 724 208 701T232
643Q232 608 209 585T150 561ZM353 300V312Q346 401 275 401Q240 401 213 376T177 300H353ZM458 151V29Q406 -5 299 -5Q174 -5 105 67T35 254Q35 375 102 443T269 512Q371 512 430 453T489 275Q489 252 481 196H183Q198 154 235 131T324 108Q401 108 458 151Z"
/>
<glyph unicode="&#xec;" glyph-name="igrave" horiz-adv-x="276" d="M65 0V507H211V0H65ZM103 731L189 554H68L-43 731H103Z" />
<glyph unicode="&#xed;" glyph-name="iacute" horiz-adv-x="276" d="M65 0V507H211V0H65ZM85 554L171 731H317L206 554H85Z" />
<glyph unicode="&#xee;" glyph-name="icircumflex" horiz-adv-x="276" d="M77 731H201L357 554H218L139 650L60 554H-79L77 731ZM65 0V507H211V0H65Z" />
<glyph unicode="&#xef;" glyph-name="idieresis" horiz-adv-x="276" d="M65 0V507H211V0H65ZM-78 643Q-78 677 -55 700T5 724Q40 724 63 701T87 643Q87 608 64 585T5 561Q-31 561 -54 584T-78 643ZM190 643Q190 677 213 700T273 724Q308 724 332 701T356 643Q356
608 332 585T273 561Q237 561 214 584T190 643Z" />
<glyph unicode="&#xf0;" glyph-name="eth" horiz-adv-x="557" d="M229 120T267 120T330 145T363 235Q321 279 266 279Q227 279 206 257T184 194Q184 161 206 141ZM482 601L417 569Q462 506 486 432T510 289Q510 154 448 72T268 -10Q159 -10 97 52T35 204Q35 293
88 347T226 402Q308 402 362 351Q349 437 300 512L157 442V523L254 570Q204 624 128 674H312Q340 654 369 627L482 682V601Z" />
<glyph unicode="&#xf1;" glyph-name="ntilde" horiz-adv-x="580" d="M416 720L490 659Q448 574 354 574Q321 574 285 591T234 609Q209 609 195 601T159 566L94 630Q110 664 141 688T210 712Q246 712 286 695T346 677Q394 677 416 720ZM206 507V421Q225 463 264
487T359 512Q437 512 481 466T525 329V0H379V302Q379 347 358 370T299 394Q259 394 233 363T206 268V0H60V507H206Z" />
<glyph unicode="&#xf2;" glyph-name="ograve" horiz-adv-x="567" d="M284 -8Q165 -8 100 63T35 247Q35 364 103 439T284 515Q402 515 467 442T532 256Q532 141 467 67T284 -8ZM283 400Q235 400 211 359T187 253T211 147T285 105Q333 105 356 145T380 251Q380 400
283 400ZM268 730L354 553H233L122 730H268Z" />
<glyph unicode="&#xf3;" glyph-name="oacute" horiz-adv-x="567" d="M235 553L321 730H467L356 553H235ZM284 -8Q165 -8 100 63T35 247Q35 364 103 439T284 515Q402 515 467 442T532 256Q532 141 467 67T284 -8ZM283 400Q235 400 211 359T187 253T211 147T285
105Q333 105 356 145T380 251Q380 400 283 400Z" />
<glyph unicode="&#xf4;" glyph-name="ocircumflex" horiz-adv-x="567" d="M283 400Q235 400 211 359T187 253T211 147T285 105Q333 105 356 145T380 251Q380 400 283 400ZM284 -8Q165 -8 100 63T35 247Q35 364 103 439T284 515Q402 515 467 442T532 256Q532 141
467 67T284 -8ZM225 730H349L505 553H366L287 649L208 553H69L225 730Z" />
<glyph unicode="&#xf5;" glyph-name="otilde" horiz-adv-x="567" d="M284 -8Q165 -8 100 63T35 247Q35 364 103 439T284 515Q402 515 467 442T532 256Q532 141 467 67T284 -8ZM283 400Q235 400 211 359T187 253T211 147T285 105Q333 105 356 145T380 251Q380 400
283 400ZM411 720L485 659Q442 574 349 574Q316 574 280 591T229 609Q204 609 190 601T154 566L89 630Q105 664 136 688T205 712Q241 712 281 695T341 677Q390 677 411 720Z" />
<glyph unicode="&#xf6;" glyph-name="odieresis" horiz-adv-x="567" d="M78 644Q78 678 101 701T161 725Q196 725 219 702T243 644Q243 609 220 586T161 562Q125 562 102 585T78 644ZM346 644Q346 678 369 701T429 725Q464 725 488 702T512 644Q512 609 488 586T429
562Q393 562 370 585T346 644ZM284 -8Q165 -8 100 63T35 247Q35 364 103 439T284 515Q402 515 467 442T532 256Q532 141 467 67T284 -8ZM283 400Q235 400 211 359T187 253T211 147T285 105Q333 105 356 145T380 251Q380 400 283 400Z" />
<glyph unicode="&#xf7;" glyph-name="divide" horiz-adv-x="589" d="M214 485T214 516T236 569T290 592T343 570T366 516T344 463T290 440T237 462ZM45 275V405H544V275H45ZM214 133T214 164T236 217T290 240T343 218T366 164T344 111T290 88T237 110Z" />
<glyph unicode="&#xf8;" glyph-name="oslash" horiz-adv-x="562" d="M391 319L235 101Q256 89 285 89Q342 89 370 134T398 251Q398 290 391 319ZM176 189L332 406Q309 416 283 416Q227 416 198 371T169 253Q169 217 176 189ZM532 515L474 434Q532 366 532 256Q532
141 467 67T284 -8Q221 -8 172 14L156 -8H35L92 72Q35 141 35 247Q35 364 103 439T284 515Q343 515 395 494L410 515H532Z" />
<glyph unicode="&#xf9;" glyph-name="ugrave" horiz-adv-x="580" d="M351 553H230L119 730H265L351 553ZM374 507H520V0H374V81Q334 -4 220 -4Q142 -4 99 39T55 168V507H201V201Q201 112 279 112Q374 112 374 239V507Z" />
<glyph unicode="&#xfa;" glyph-name="uacute" horiz-adv-x="580" d="M470 730L359 553H238L324 730H470ZM374 507H520V0H374V81Q334 -4 220 -4Q142 -4 99 39T55 168V507H201V201Q201 112 279 112Q374 112 374 239V507Z" />
<glyph unicode="&#xfb;" glyph-name="ucircumflex" horiz-adv-x="580" d="M288 650L209 554H70L226 731H350L506 554H367L288 650ZM374 507H520V0H374V81Q334 -4 220 -4Q142 -4 99 39T55 168V507H201V201Q201 112 279 112Q374 112 374 239V507Z" />
<glyph unicode="&#xfc;" glyph-name="udieresis" horiz-adv-x="580" d="M421 561Q385 561 362 584T338 643Q338 677 361 700T421 724Q456 724 480 701T504 643Q504 608 480 585T421 561ZM153 561Q117 561 94 584T70 643Q70 677 93 700T153 724Q188 724 211 701T235
643Q235 608 212 585T153 561ZM374 507H520V0H374V81Q334 -4 220 -4Q142 -4 99 39T55 168V507H201V201Q201 112 279 112Q374 112 374 239V507Z" />
<glyph unicode="&#xfd;" glyph-name="yacute" horiz-adv-x="532" d="M224 554L310 731H456L345 554H224ZM201 8L5 507H164L219 349Q240 288 253 244T270 186L273 172Q284 212 327 349L377 507H527L344 15Q265 -198 103 -198Q72 -198 47 -193V-77Q63 -81 81 -81Q164
-81 201 8Z" />
<glyph unicode="&#xfe;" glyph-name="thorn" horiz-adv-x="611" d="M320 116Q368 116 398 152T428 252Q428 321 398 356T320 392Q274 392 240 357T206 259Q206 194 238 155T320 116ZM206 707V429Q259 513 359 513Q457 513 516 444T576 255Q576 142 519 68T359
-6Q256 -6 206 75V-187H60V707H206Z" />
<glyph unicode="&#xff;" glyph-name="ydieresis" horiz-adv-x="532" d="M327 643Q327 677 350 700T410 724Q445 724 469 701T493 643Q493 608 469 585T410 561Q374 561 351 584T327 643ZM59 643Q59 677 82 700T142 724Q177 724 200 701T224 643Q224 608 201 585T142
561Q106 561 83 584T59 643ZM201 8L5 507H164L219 349Q240 288 253 244T270 186L273 172Q284 212 327 349L377 507H527L344 15Q265 -198 103 -198Q72 -198 47 -193V-77Q63 -81 81 -81Q164 -81 201 8Z" />
<glyph unicode="&#x2013;" glyph-name="endash" horiz-adv-x="555" d="M45 215V322H510V215H45Z" />
<glyph unicode="&#x2014;" glyph-name="emdash" horiz-adv-x="836" d="M45 218V325H791V218H45Z" />
<glyph unicode="&#x2018;" glyph-name="quoteleft" horiz-adv-x="267" d="M289 694L188 433H27L163 694H289Z" />
<glyph unicode="&#x2019;" glyph-name="quoteright" horiz-adv-x="267" d="M28 433L129 694H290L154 433H28Z" />
<glyph unicode="&#x201a;" glyph-name="quotesinglbase" horiz-adv-x="267" d="M-7 -127L94 134H255L119 -127H-7Z" />
<glyph unicode="&#x201c;" glyph-name="quotedblleft" horiz-adv-x="452" d="M289 694L185 433H27L168 694H289ZM474 694L378 433H232L353 694H474Z" />
<glyph unicode="&#x201d;" glyph-name="quotedblright" horiz-adv-x="452" d="M213 433L317 694H475L334 433H213ZM28 433L124 694H270L149 433H28Z" />
<glyph unicode="&#x201e;" glyph-name="quotedblbase" horiz-adv-x="452" d="M183 -127L287 134H445L304 -127H183ZM-2 -127L94 134H240L119 -127H-2Z" />
<glyph unicode="&#x2022;" glyph-name="bullet" horiz-adv-x="425" d="M80 299T80 356T117 451T212 489Q268 489 306 451T345 356T307 262T213 223Q156 223 118 261Z" />
<glyph unicode="&#x2039;" glyph-name="guilsinglleft" horiz-adv-x="371" d="M330 415L184 253L330 91H178L26 253L178 415H330Z" />
<glyph unicode="&#x203a;" glyph-name="guilsinglright" horiz-adv-x="371" d="M193 415L345 253L193 91H41L187 253L41 415H193Z" />
</font>
</defs>
</svg>
