<?xml version="1.0" standalone="no"?>
<!DOCTYPE svg PUBLIC "-//W3C//DTD SVG 1.1//EN" "http://www.w3.org/Graphics/SVG/1.1/DTD/svg11.dtd">
<svg xmlns="http://www.w3.org/2000/svg">
<defs >
<font id="Hind" horiz-adv-x="534" ><font-face
    font-family="Hind Medium"
    units-per-em="1000"
    panose-1="2 0 0 0 0 0 0 0 0 0"
    ascent="1055"
    descent="-546"
    alphabetic="0" />
<glyph unicode=" " glyph-name="space" horiz-adv-x="246" />
<glyph unicode="!" glyph-name="exclam" horiz-adv-x="262" d="M83 214V674H179V214H83ZM62 31T62 60T81 109T130 129Q158 129 178 109T199 60Q199 31 179 12T130 -8T82 11Z" />
<glyph unicode="&quot;" glyph-name="quotedbl" horiz-adv-x="322" d="M43 437V681H128V437H43ZM194 437V681H279V437H194Z" />
<glyph unicode="#" glyph-name="numbersign" horiz-adv-x="723" d="M427 243L466 427H300L261 243H427ZM673 427H552L513 243H626V165H497L462 0H375L410 165H244L209 0H123L158 165H51V243H174L212 427H99V507H229L264 674H352L317 507H483L518 674H604L569 507H673V427Z"
/>
<glyph unicode="$" glyph-name="dollar" horiz-adv-x="507" d="M426 647V545Q360 587 274 587Q219 587 188 563T157 498Q157 476 166 459T199 426T239 402T292 378Q330 361 354 348T406 311T447 257T461 184Q461 103 410 54T274 -5V-112H190V-5Q108 3 51 36V143Q130
84 234 84Q289 84 321 109T354 180Q354 191 352 200T344 219T333 234T317 248T299 260T277 272T254 283T228 295T202 306Q129 339 88 380T47 493Q47 572 100 621T240 678V785H325V676Q385 667 426 647Z" />
<glyph unicode="%" glyph-name="percent" horiz-adv-x="884" d="M212 -1L576 677H669L304 -1H212ZM501 160Q501 229 550 278T669 328Q738 328 787 279T836 160Q836 90 787 42T669 -7Q599 -7 550 41T501 160ZM48 520Q48 589 97 638T215 687Q285 687 334 638T383
520Q383 450 334 401T215 352Q146 352 97 401T48 520ZM131 520Q131 485 155 460T215 435T275 460T300 520T275 579T215 604T156 579T131 520ZM584 195T584 160T609 100T669 75T728 100T753 160T729 220T669 245T609 220Z" />
<glyph unicode="&amp;" glyph-name="ampersand" horiz-adv-x="715" d="M276 290L275 291Q216 269 189 244T162 181Q162 134 207 106T321 78Q400 78 459 117L276 290ZM324 604Q283 604 257 581T231 517Q231 487 250 457T311 381Q424 436 424 509Q424 551 398 577T324
604ZM712 0H584L525 55Q443 -8 322 -8Q204 -8 133 45T61 178Q61 296 216 351Q130 440 130 517Q130 596 184 643T325 690Q415 690 469 641T524 512Q524 454 489 408T370 324L518 182Q541 224 544 277H636Q632 189 585 119Q614 92 659 49T712 0Z" />
<glyph unicode="&apos;" glyph-name="quotesingle" horiz-adv-x="171" d="M43 437V681H128V437H43Z" />
<glyph unicode="(" glyph-name="parenleft" horiz-adv-x="318" d="M331 -196H224Q62 7 62 261Q62 511 217 707H323Q246 607 207 490T167 256Q167 144 209 25T331 -196Z" />
<glyph unicode=")" glyph-name="parenright" horiz-adv-x="318" d="M102 707Q256 512 256 261Q256 8 95 -196H-13Q67 -94 109 25T152 256Q152 371 112 488T-4 707H102Z" />
<glyph unicode="*" glyph-name="asterisk" horiz-adv-x="437" d="M276 471H271Q289 460 304 439L360 360L296 313L239 391Q227 408 219 431Q215 413 199 391L141 313L76 360L134 438Q148 457 167 470H161Q139 470 121 476L29 507L53 583L146 553Q171 544 187 530Q178
553 178 577V674H258V577Q258 551 250 532Q268 546 291 554L383 583L408 507L316 477Q298 471 276 471Z" />
<glyph unicode="+" glyph-name="plus" horiz-adv-x="564" d="M510 384V295H325V109H234V295H53V384H234V571H325V384H510Z" />
<glyph unicode="," glyph-name="comma" horiz-adv-x="245" d="M-8 -124L88 110H209L78 -124H-8Z" />
<glyph unicode="-" glyph-name="hyphen" horiz-adv-x="350" d="M53 225V309H297V225H53Z" />
<glyph unicode="." glyph-name="period" horiz-adv-x="193" d="M29 32T29 60T48 107T97 127Q125 127 144 108T164 60T145 12T97 -8Q68 -8 49 12Z" />
<glyph unicode="/" glyph-name="slash" horiz-adv-x="421" d="M-7 -102L356 707H457L94 -102H-7Z" />
<glyph unicode="0" glyph-name="zero" horiz-adv-x="545" d="M41 329Q41 483 102 573T271 664Q380 664 442 574T504 329Q504 176 444 84T271 -8Q164 -8 103 84T41 329ZM141 446T141 329T177 148T271 83Q333 83 368 147T403 329Q403 448 367 510T271 573Q215 573 178 510Z" />
<glyph unicode="1" glyph-name="one" horiz-adv-x="340" d="M16 452V557L179 654H268V0H171V547L16 452Z" />
<glyph unicode="2" glyph-name="two" horiz-adv-x="496" d="M171 85H455V0H36V81Q162 173 248 271T335 451Q335 508 302 538T211 569Q131 569 54 509V606Q126 661 225 661Q317 661 377 610T437 463Q437 287 171 85Z" />
<glyph unicode="3" glyph-name="three" horiz-adv-x="471" d="M57 530V625Q119 661 195 661Q295 661 351 612T408 487Q408 433 382 393T303 331Q360 317 392 278T424 180Q424 99 366 47T203 -6Q104 -6 36 28V124Q110 84 198 84Q257 84 290 113T324 189Q324 237
287 263T176 289H136V373H176Q231 373 268 400T306 476T276 548T192 572Q124 572 57 530Z" />
<glyph unicode="4" glyph-name="four" horiz-adv-x="546" d="M137 238H334V595L137 238ZM524 238V153H432V0H334V153H38V238L273 655H432V238H524Z" />
<glyph unicode="5" glyph-name="five" horiz-adv-x="507" d="M180 570V398Q217 406 248 406Q350 406 408 353T466 208Q466 110 402 52T222 -7Q119 -7 52 27V122Q116 83 206 83Q364 83 364 211Q364 262 329 290T233 319Q157 319 83 284V655H422V570H180Z" />
<glyph unicode="6" glyph-name="six" horiz-adv-x="529" d="M283 76Q335 76 365 113T395 212Q395 269 365 302T285 335Q207 335 147 270Q151 173 188 125T283 76ZM449 656V561Q410 581 358 581Q270 581 217 519T150 358Q215 421 304 421T444 364T496 213Q496 113
438 50T282 -13Q168 -13 108 72T47 297Q47 461 130 566T354 671Q404 671 449 656Z" />
<glyph unicode="7" glyph-name="seven" horiz-adv-x="459" d="M14 654H445V569L179 0H74L341 569H14V654Z" />
<glyph unicode="8" glyph-name="eight" horiz-adv-x="538" d="M267 75Q328 75 360 105T393 179T361 253T267 283Q207 282 177 251T146 173Q146 131 177 103T267 75ZM266 579Q215 579 186 549T157 476Q157 425 188 399T270 372Q317 372 347 399T378 477Q378 521
351 550T266 579ZM380 329Q492 291 492 174Q492 91 428 41T266 -9Q170 -9 108 39T46 169Q46 285 157 328Q110 348 84 386T57 475Q57 563 118 613T266 663Q356 663 417 615T478 474Q478 375 380 329Z" />
<glyph unicode="9" glyph-name="nine" horiz-adv-x="512" d="M252 316Q328 316 375 375Q373 466 342 519T247 573Q195 573 164 539T133 445Q133 385 165 351T252 316ZM65 11V106Q116 83 173 83Q345 83 371 287Q323 232 228 232Q146 232 89 290T31 443T88 600T243
662Q355 662 413 580T472 366Q472 188 397 90T180 -8Q116 -8 65 11Z" />
<glyph unicode=":" glyph-name="colon" horiz-adv-x="250" d="M58 391Q58 419 77 438T125 458T172 439T192 391T173 344T125 324Q96 324 77 343T58 391ZM58 38T58 66T77 113T125 133T172 114T192 66T173 19T125 -1Q96 -1 77 18Z" />
<glyph unicode=";" glyph-name="semicolon" horiz-adv-x="245" d="M71 390Q71 419 90 438T137 458Q166 458 185 438T205 390T186 343T137 324Q109 324 90 343T71 390ZM-8 -124L88 110H209L78 -124H-8Z" />
<glyph unicode="&lt;" glyph-name="less" horiz-adv-x="545" d="M53 293V388L497 573V473Q207 366 155 341Q179 329 264 296T424 236L497 208V108L53 293Z" />
<glyph unicode="=" glyph-name="equal" horiz-adv-x="564" d="M53 403V487H510V403H53ZM53 193V278H510V193H53Z" />
<glyph unicode="&gt;" glyph-name="greater" horiz-adv-x="545" d="M491 388V293L48 108V208Q336 315 390 341Q366 352 281 385T122 446L48 473V573L491 388Z" />
<glyph unicode="?" glyph-name="question" horiz-adv-x="454" d="M51 548V645Q116 682 208 682Q303 682 360 634T418 499Q418 414 360 367T231 315L230 214H137L136 375Q317 375 317 492Q317 539 287 567T199 596Q125 596 51 548ZM114 31T114 60T134 109T182 129Q211
129 231 109T251 60T231 12T182 -8T134 11Z" />
<glyph unicode="@" glyph-name="at" horiz-adv-x="926" d="M442 89Q481 89 514 116T562 193Q564 217 565 244Q549 347 463 347Q413 347 381 306T348 200Q348 150 374 120T442 89ZM615 -55L611 -146Q536 -182 430 -182Q256 -182 155 -75T54 197Q54 319 114 419T277
574T499 630Q660 630 771 531T883 267Q883 152 827 84T698 15Q598 15 570 108Q522 13 421 13Q345 13 301 68T257 205Q257 299 314 361T454 423Q535 423 573 356Q573 365 574 386T577 419H657L647 316Q640 226 640 196Q640 93 702 93Q743 93 770 139T798 261Q798
399 713 473T496 548Q350 548 248 446T145 196Q145 56 228 -21T431 -99Q532 -99 615 -55Z" />
<glyph unicode="A" glyph-name="A" horiz-adv-x="660" d="M222 251H438L427 285Q389 403 365 480T336 577L331 596Q320 549 233 285L222 251ZM519 0L466 165H194L140 0H31L264 674H399L629 0H519Z" />
<glyph unicode="B" glyph-name="B" horiz-adv-x="581" d="M176 85H308Q435 85 435 190Q435 241 401 269T298 298H176V85ZM176 589V382H269Q344 382 380 412T417 492Q417 535 385 562T286 589H176ZM73 674H294Q400 674 461 625T522 494Q522 438 491 396T410 342Q465
332 502 291T540 181Q540 101 486 51T332 0H73V674Z" />
<glyph unicode="C" glyph-name="C" horiz-adv-x="605" d="M560 646V545Q516 569 481 578T390 588Q289 588 222 520T154 338Q154 223 221 155T398 87Q495 87 561 137V33Q499 -8 389 -8Q238 -8 142 86T46 338Q46 491 142 587T387 683Q495 683 560 646Z" />
<glyph unicode="D" glyph-name="D" horiz-adv-x="667" d="M178 87H284Q399 87 459 159T519 344Q519 448 454 517T281 586H178V87ZM73 674H283Q433 674 529 581T625 344Q625 194 535 97T285 0H73V674Z" />
<glyph unicode="E" glyph-name="E" horiz-adv-x="514" d="M176 86H462V0H73V674H457V588H176V380H425V294H176V86Z" />
<glyph unicode="F" glyph-name="F" horiz-adv-x="494" d="M455 588H176V367H421V281H176V0H73V674H455V588Z" />
<glyph unicode="G" glyph-name="G" horiz-adv-x="681" d="M615 385V62H614L615 55Q528 -8 397 -8Q239 -8 143 85T46 338Q46 493 143 589T391 686Q508 686 587 641V535Q501 589 395 589Q287 589 221 520T154 338Q154 222 219 155T400 88Q460 88 514 110V296H377V385H615Z" />
<glyph unicode="H" glyph-name="H" horiz-adv-x="656" d="M479 674H582V0H479V295H176V0H73V674H176V384H479V674Z" />
<glyph unicode="I" glyph-name="I" horiz-adv-x="264" d="M81 0V674H183V0H81Z" />
<glyph unicode="J" glyph-name="J" horiz-adv-x="368" d="M30 21V116Q71 91 112 91Q194 91 194 178V674H297V182Q297 89 252 45T129 0Q67 0 30 21Z" />
<glyph unicode="K" glyph-name="K" horiz-adv-x="599" d="M73 0V674H176V0H73ZM312 334L574 0H444L189 333L434 674H559L312 334Z" />
<glyph unicode="L" glyph-name="L" horiz-adv-x="480" d="M176 91H452V0H73V674H176V91Z" />
<glyph unicode="M" glyph-name="M" horiz-adv-x="868" d="M64 0L116 674H238L328 428Q352 365 376 295T412 185L425 146Q471 282 526 428L620 674H742L804 0H702L678 264L657 534Q612 407 559 264L465 13H384L293 264L202 530Q202 486 186 264L166 0H64Z" />
<glyph unicode="N" glyph-name="N" horiz-adv-x="680" d="M73 0V674H195L361 392Q407 313 444 246T496 152L510 124Q504 215 504 391V674H607V0H485L318 281Q273 357 236 424T183 522L168 551Q176 451 176 282V0H73Z" />
<glyph unicode="O" glyph-name="O" horiz-adv-x="711" d="M46 340Q46 497 130 592T355 687Q499 687 582 593T665 340T582 87T356 -8Q215 -8 131 87T46 340ZM154 456T154 340T209 156T356 88Q451 88 504 155T557 340Q557 457 504 524T355 591Q261 591 208 524Z" />
<glyph unicode="P" glyph-name="P" horiz-adv-x="550" d="M176 324H264Q337 324 375 360T414 455Q414 517 375 553T262 589H176V324ZM73 674H266Q382 674 450 613T518 455T450 299T272 239H176V0H73V674Z" />
<glyph unicode="Q" glyph-name="Q" horiz-adv-x="719" d="M154 456T154 340T209 156T356 88Q451 88 504 155T557 340Q557 457 504 524T355 591Q261 591 208 524ZM699 -99L585 -144L388 -7Q377 -8 356 -8Q215 -8 131 87T46 340Q46 497 130 592T355 687Q499 687
582 593T665 340Q665 227 621 144T497 22L699 -99Z" />
<glyph unicode="R" glyph-name="R" horiz-adv-x="568" d="M176 588V342H269Q333 342 366 375T399 465Q399 588 264 588H176ZM423 0L265 256H176V0H73V674H261Q377 674 440 618T503 464Q502 393 467 344T370 272L546 0H423Z" />
<glyph unicode="S" glyph-name="S" horiz-adv-x="521" d="M437 647V545Q370 587 285 587Q230 587 199 563T167 498T198 434T293 382Q335 364 358 351T412 315T457 259T472 184Q472 95 409 44T246 -7Q135 -7 62 36V143Q141 84 245 84Q300 84 332 109T364 180Q364
207 345 229T304 263T238 295Q212 307 202 312T167 330T132 352T103 377T79 409T65 446T58 493Q58 579 120 629T282 679Q373 679 437 647Z" />
<glyph unicode="T" glyph-name="T" horiz-adv-x="500" d="M478 674V588H301V0H198V588H22V674H478Z" />
<glyph unicode="U" glyph-name="U" horiz-adv-x="652" d="M478 256V674H581V258Q581 127 513 59T325 -9Q207 -9 139 57T71 250V674H174V251Q174 165 215 126T325 86Q478 86 478 256Z" />
<glyph unicode="V" glyph-name="V" horiz-adv-x="643" d="M613 674L380 0H258L31 674H141L227 406Q255 320 278 242T310 128L320 92Q352 212 416 406L503 674H613Z" />
<glyph unicode="W" glyph-name="W" horiz-adv-x="947" d="M432 664H523L594 424L685 107Q722 289 754 424L813 674H917L752 0H629L565 213L478 514Q455 419 394 213L332 0H208L31 674H138L201 425L275 109Q320 277 363 425L432 664Z" />
<glyph unicode="X" glyph-name="X" horiz-adv-x="628" d="M251 341L47 674H166L309 432Q317 448 380 555T450 674H573L369 340L592 0H471L311 253Q302 236 234 125T158 0H35L251 341Z" />
<glyph unicode="Y" glyph-name="Y" horiz-adv-x="608" d="M585 674L354 251V0H251V251L23 674H141L189 575Q235 482 263 422T296 348L302 335Q311 365 418 575L467 674H585Z" />
<glyph unicode="Z" glyph-name="Z" horiz-adv-x="584" d="M516 674V595L175 85H530V0H54V81L394 589H59V674H516Z" />
<glyph unicode="[" glyph-name="bracketleft" horiz-adv-x="325" d="M319 620H169V-99H319V-186H73V707H319V620Z" />
<glyph unicode="\" glyph-name="backslash" horiz-adv-x="420" d="M65 707L428 -103H327L-37 707H65Z" />
<glyph unicode="]" glyph-name="bracketright" horiz-adv-x="325" d="M252 707V-186H7V-99H157V620H7V707H252Z" />
<glyph unicode="^" glyph-name="asciicircum" horiz-adv-x="470" d="M428 332H333L236 522L137 332H41L186 594H286L428 332Z" />
<glyph unicode="_" glyph-name="underscore" horiz-adv-x="557" d="M26 -119V-35H531V-119H26Z" />
<glyph unicode="`" glyph-name="grave" horiz-adv-x="444" d="M230 798L325 636H241L121 798H230Z" />
<glyph unicode="a" glyph-name="a" horiz-adv-x="499" d="M336 226H260Q204 226 176 204T147 148Q147 113 169 93T233 73Q281 73 308 99T336 169V226ZM81 386V481Q140 515 237 515Q436 515 436 322V0H339V60Q300 -4 202 -4Q130 -4 87 37T43 143Q43 216 98 256T252
297H336V326Q336 378 311 404T228 431Q147 431 81 386Z" />
<glyph unicode="b" glyph-name="b" horiz-adv-x="582" d="M308 79Q364 79 402 126T440 249Q440 335 402 381T305 428Q253 428 212 386T170 257Q170 167 210 123T308 79ZM170 707V430Q224 514 323 514Q419 514 480 442T541 251Q541 144 483 69T324 -7T170 77V0H71V707H170Z"
/>
<glyph unicode="c" glyph-name="c" horiz-adv-x="471" d="M142 251Q144 174 189 125T315 75Q375 75 427 108V20Q378 -10 302 -10Q183 -10 112 65T41 252Q41 361 112 438T306 516Q372 516 427 488V398Q378 429 316 429Q237 429 190 379T142 251Z" />
<glyph unicode="d" glyph-name="d" horiz-adv-x="580" d="M274 79Q332 79 372 123T412 257Q412 344 371 386T277 428Q218 428 180 382T142 249Q142 173 179 126T274 79ZM412 707H511V0H412V77Q359 -7 257 -7Q157 -7 99 68T41 251Q41 370 102 442T259 514Q358 514
412 430V707Z" />
<glyph unicode="e" glyph-name="e" horiz-adv-x="525" d="M384 290V308Q382 365 353 398T270 432Q220 432 184 396T139 290H384ZM447 115V27Q391 -5 299 -5Q181 -5 111 66T41 252Q41 374 105 443T268 513Q365 513 422 453T479 278Q479 247 473 213H140Q150 147
196 112T312 77Q393 77 447 115Z" />
<glyph unicode="f" glyph-name="f" horiz-adv-x="334" d="M330 708V622Q307 632 282 632Q209 632 209 545V507H316V431H209V0H111V431H30V507H111V546Q111 625 153 670T273 716Q301 716 330 708Z" />
<glyph unicode="g" glyph-name="g" horiz-adv-x="559" d="M269 98Q321 98 359 138T398 252Q398 342 362 385T273 428Q214 428 180 382T146 259Q146 180 182 139T269 98ZM398 507H496V43Q496 -74 430 -133T259 -193Q161 -193 94 -160V-61Q158 -103 249 -103Q398
-103 398 44V96Q349 14 251 14Q165 14 104 77T43 257Q43 369 100 441T251 514Q352 514 398 428V507Z" />
<glyph unicode="h" glyph-name="h" horiz-adv-x="551" d="M167 707V420Q210 514 324 514Q398 514 443 468T488 340V0H390V320Q390 372 364 400T294 429Q244 429 206 391T167 275V0H69V707H167Z" />
<glyph unicode="i" glyph-name="i" horiz-adv-x="245" d="M73 0V507H172V0H73ZM61 636T61 662T78 706T122 724T166 706T184 662Q184 637 166 619T122 601T79 618Z" />
<glyph unicode="j" glyph-name="j" horiz-adv-x="242" d="M-44 -181V-98Q-12 -114 20 -114Q75 -114 75 -43V507H173V-45Q173 -116 136 -156T29 -196Q-3 -196 -44 -181ZM62 636T62 662T79 706T123 724T167 706T185 662Q185 637 167 619T123 601Q98 601 80 618Z" />
<glyph unicode="k" glyph-name="k" horiz-adv-x="500" d="M69 0V700H167V0H69ZM284 265L483 0H366L171 265L362 507H477L284 265Z" />
<glyph unicode="l" glyph-name="l" horiz-adv-x="245" d="M73 0V707H172V0H73Z" />
<glyph unicode="m" glyph-name="m" horiz-adv-x="830" d="M167 507V426Q210 514 310 514Q424 514 456 416Q477 463 517 488T607 514Q685 514 725 468T766 341V0H668V320Q668 429 580 429Q536 429 502 390T467 275V0H369V320Q369 429 280 429Q237 429 202 390T167
275V0H69V507H167Z" />
<glyph unicode="n" glyph-name="n" horiz-adv-x="551" d="M167 507V420Q212 514 325 514Q400 514 444 468T488 343V0H390V320Q390 373 364 401T293 429Q241 429 204 389T167 275V0H69V507H167Z" />
<glyph unicode="o" glyph-name="o" horiz-adv-x="564" d="M281 -9Q169 -9 105 64T41 249Q41 363 107 438T281 514Q397 514 460 441T523 253T459 65T281 -9ZM280 431Q215 431 179 380T143 252Q143 177 180 126T281 74Q349 74 384 124T420 251Q420 330 386 380T280 431Z" />
<glyph unicode="p" glyph-name="p" horiz-adv-x="580" d="M303 79Q362 79 400 125T438 256Q438 335 401 381T307 428T209 387T167 255Q167 167 208 123T303 79ZM167 507V429Q219 514 323 514Q423 514 481 442T539 257Q539 142 480 68T321 -7Q220 -7 167 77V-194H69V507H167Z"
/>
<glyph unicode="q" glyph-name="q" horiz-adv-x="580" d="M277 79Q331 79 371 123T412 255Q412 345 371 386T274 428Q217 428 180 381T142 256Q142 173 180 126T277 79ZM412 507H511V-194H412V78Q358 -7 259 -7T101 67T41 257Q41 369 99 441T258 514T412 431V507Z" />
<glyph unicode="r" glyph-name="r" horiz-adv-x="339" d="M167 507V418Q204 512 300 512Q314 512 331 509V413Q310 422 284 422Q233 422 200 377T167 270V0H69V507H167Z" />
<glyph unicode="s" glyph-name="s" horiz-adv-x="419" d="M358 490V401Q309 430 232 430Q197 430 177 414T156 372Q156 365 157 359T163 346T170 335T182 325T194 317T209 308T225 301T242 293T260 285Q319 259 352 227T386 140Q386 72 338 34T208 -5Q118 -5 58
25V118Q128 75 203 75Q242 75 263 91T285 133Q285 155 268 172T234 198T174 225Q55 274 55 369Q55 436 105 474T230 512Q312 512 358 490Z" />
<glyph unicode="t" glyph-name="t" horiz-adv-x="374" d="M196 431V152Q196 79 266 79Q307 79 335 101V13Q302 -5 254 -5Q97 -5 97 154V431H18V507H97V631H196V507H329V431H196Z" />
<glyph unicode="u" glyph-name="u" horiz-adv-x="551" d="M384 507H482V0H384V87Q344 -6 226 -6Q151 -6 107 38T63 161V507H162V185Q162 133 187 106T258 78Q315 78 349 118T384 231V507Z" />
<glyph unicode="v" glyph-name="v" horiz-adv-x="514" d="M199 0L19 507H122L191 293Q215 219 231 165T252 94L256 77Q265 126 322 293L393 507H495L311 0H199Z" />
<glyph unicode="w" glyph-name="w" horiz-adv-x="796" d="M178 0L19 507H123L170 339Q193 259 209 198T229 116L233 95Q246 158 299 340L348 507H443L493 340Q517 257 534 196T556 114L560 94Q572 153 628 340L678 507H777L616 0H504L457 166Q436 242 421 300T400
380L396 400Q382 335 335 166L289 0H178Z" />
<glyph unicode="x" glyph-name="x" horiz-adv-x="492" d="M300 257L469 0H358L247 186L130 0H22L195 258L33 508H144L250 329L359 508H469L300 257Z" />
<glyph unicode="y" glyph-name="y" horiz-adv-x="504" d="M209 11L7 507H116L179 342L258 128Q267 158 330 342L387 507H491L308 14Q235 -181 85 -181Q58 -181 39 -176V-92Q55 -96 73 -96Q170 -96 209 11Z" />
<glyph unicode="z" glyph-name="z" horiz-adv-x="461" d="M405 507V437L156 83H418V0H43V75L289 425H52V507H405Z" />
<glyph unicode="{" glyph-name="braceleft" horiz-adv-x="348" d="M46 212V308Q60 308 71 309Q112 313 135 345T158 420Q158 441 149 485T140 555Q140 625 180 669T278 713Q304 713 331 704V610Q314 619 298 619Q270 619 255 600T239 551Q239 528 248 481T257
405Q257 348 225 308T137 260Q192 252 224 212T257 114Q257 86 248 39T239 -31Q239 -61 254 -80T298 -100Q314 -100 331 -91V-185Q304 -194 278 -194Q220 -194 180 -150T140 -36Q140 -11 149 33T158 99Q158 142 136 173T71 211Q62 212 46 212Z" />
<glyph unicode="|" glyph-name="bar" horiz-adv-x="243" d="M76 -194V695H167V-194H76Z" />
<glyph unicode="}" glyph-name="braceright" horiz-adv-x="348" d="M17 610V704Q44 713 69 713Q128 713 167 670T207 555Q207 530 198 486T189 420Q189 377 212 345T277 309Q287 308 302 308V212Q285 212 277 211Q233 205 211 174T189 99Q189 78 198 34T207 -36Q207
-107 168 -150T69 -194Q44 -194 17 -185V-91Q32 -100 49 -100Q77 -100 93 -81T109 -31Q109 -9 100 38T91 114Q91 171 123 211T210 260Q155 268 123 308T91 405Q91 433 100 480T109 551Q109 580 93 599T49 619Q32 619 17 610Z" />
<glyph unicode="~" glyph-name="asciitilde" horiz-adv-x="615" d="M510 341L581 288Q518 192 429 192Q378 192 310 225T212 259Q149 259 100 193L34 249Q103 348 194 348Q239 348 280 332T354 299T415 282Q470 282 510 341Z" />
<glyph unicode="&#xa0;" glyph-name="uni00A0" horiz-adv-x="246" />
<glyph unicode="&#xa1;" glyph-name="exclamdown" horiz-adv-x="262" d="M62 420T62 449T81 497T130 517T179 498T199 449T179 400T130 380Q101 380 82 400ZM83 -165V295H179V-165H83Z" />
<glyph unicode="&#xa2;" glyph-name="cent" horiz-adv-x="460" d="M420 488V400Q372 427 318 427Q239 427 191 378T142 251Q144 175 190 126T318 77Q372 77 420 105V17Q386 1 341 -6V-111H257V-5Q158 11 100 82T41 252Q42 349 99 421T257 509V617H341V511Q383
506 420 488Z" />
<glyph unicode="&#xa3;" glyph-name="sterling" horiz-adv-x="527" d="M177 85H490V0H56V82Q108 108 128 145T148 250Q148 261 146 285H60V360H138Q131 411 131 441Q131 545 186 602T343 659Q412 659 460 632V536Q412 566 358 566Q236 566 236 441Q236 416 242
360H418V285H250Q250 279 250 267T251 250Q251 132 177 85Z" />
<glyph unicode="&#xa4;" glyph-name="currency" horiz-adv-x="551" d="M56 310Q56 376 92 432L32 492L93 551L153 491Q207 528 278 528Q344 528 401 494L459 551L519 492L461 434Q496 379 496 314Q496 246 458 190L519 130L459 71L397 131Q345 96 274 96Q202 96
151 129L93 71L32 130L91 188Q56 238 56 310ZM140 370T140 312T178 215T276 175Q336 175 374 214T412 312Q412 370 374 409T276 449T179 410Z" />
<glyph unicode="&#xa5;" glyph-name="yen" horiz-adv-x="600" d="M571 654L409 362H526V294H371L349 254V213H526V145H349V0H246V145H70V213H246V254L224 294H70V362H186L26 654H144L297 354L454 654H571Z" />
<glyph unicode="&#xa6;" glyph-name="brokenbar" horiz-adv-x="243" d="M167 367H76V700H167V367ZM167 -160H76V173H167V-160Z" />
<glyph unicode="&#xa7;" glyph-name="section" horiz-adv-x="537" d="M153 297Q153 256 184 232T288 176Q332 158 361 142Q380 167 380 202Q380 242 352 265T258 320Q249 324 245 326Q233 331 210 342T175 359Q153 331 153 297ZM435 648V546Q365 588 283 588Q227
588 197 567T167 508Q167 491 173 479T195 455T225 436T269 415T319 392Q357 374 380 360T429 324T467 271T479 201Q479 131 437 84Q475 39 475 -18Q475 -104 414 -151T251 -198Q140 -198 67 -155V-48Q146 -107 250 -107Q307 -107 338 -85T370 -19Q370 18 340 41T223
103Q142 139 98 181T53 297Q53 362 96 412Q60 450 60 505Q60 588 121 634T280 680Q371 680 435 648Z" />
<glyph unicode="&#xa8;" glyph-name="dieresis" horiz-adv-x="444" d="M51 693T51 719T68 762T112 779Q138 779 155 762T172 719T155 677T112 659Q85 659 68 676ZM272 694T272 719T289 761T332 779T375 762T393 719T376 676T332 659T289 676Z" />
<glyph unicode="&#xa9;" glyph-name="copyright" horiz-adv-x="772" d="M41 195T41 337T142 580T386 682T629 581T731 337T630 93T386 -9T143 93ZM116 449T116 336T194 145T387 66Q500 66 578 144T656 336T578 528T387 607Q273 607 195 528ZM305 335Q306 287 336
256T413 224Q458 224 493 249V175Q457 154 405 154Q325 154 274 206T223 335T273 465T408 519Q455 519 493 498V425Q459 447 414 447Q367 447 336 417T305 335Z" />
<glyph unicode="&#xaa;" glyph-name="ordfeminine" horiz-adv-x="365" d="M251 582H194Q144 582 117 565T90 516Q90 487 109 471T164 454Q202 454 226 476T251 531V582ZM36 718V797Q87 826 168 826Q254 826 294 786T335 664V392H253V445Q214 388 138 388Q77 388
41 422T4 513Q4 574 50 609T181 644H251V666Q251 710 230 732T159 755Q90 755 36 718Z" />
<glyph unicode="&#xab;" glyph-name="guillemotleft" horiz-adv-x="512" d="M284 415L137 253L284 91H177L27 253L177 415H284ZM479 415L333 253L479 91H373L222 253L373 415H479Z" />
<glyph unicode="&#xac;" glyph-name="logicalnot" horiz-adv-x="565" d="M526 153H439V330H31V414H526V153Z" />
<glyph unicode="&#xad;" glyph-name="uni00AD" horiz-adv-x="350" d="M53 225V309H297V225H53Z" />
<glyph unicode="&#xae;" glyph-name="registered" horiz-adv-x="462" d="M210 645V582H234Q263 582 263 614Q263 645 231 645H210ZM163 684H227Q311 684 311 614Q311 570 275 552L331 464H275L227 544H210V464H163V684ZM232 397Q308 397 354 444T401 567T355 690T232
738Q155 738 109 691T62 567T108 444T232 397ZM135 787T231 787T389 725T452 567T390 409T231 347T73 409T10 567T72 725Z" />
<glyph unicode="&#xaf;" glyph-name="overscore" horiz-adv-x="444" d="M374 681H70V749H374V681Z" />
<glyph unicode="&#xb0;" glyph-name="degree" horiz-adv-x="380" d="M30 520Q30 587 76 633T191 679T304 634T350 522Q350 454 304 409T189 363T76 407T30 520ZM105 557T105 521T130 460T191 434T251 459T275 521T250 582T189 608T129 583Z" />
<glyph unicode="&#xb1;" glyph-name="plusminus" horiz-adv-x="564" d="M53 30V114H510V30H53ZM325 414H510V329H325V169H234V329H53V414H234V574H325V414Z" />
<glyph unicode="&#xb2;" glyph-name="twosuperior" horiz-adv-x="365" d="M43 392V449Q233 590 233 687Q233 720 214 737T161 755Q110 755 56 715V794Q109 827 168 827Q230 827 271 792T313 694Q313 635 267 574T146 457H327V392H43Z" />
<glyph unicode="&#xb3;" glyph-name="threesuperior" horiz-adv-x="333" d="M105 642H126Q162 642 185 657T208 702Q208 759 142 759Q96 759 48 726V800Q91 827 146 827Q213 827 250 794T287 710Q287 670 266 645T208 611Q246 607 272 579T298 508Q298 455 260
422T154 388Q85 388 35 413V483Q88 455 146 455Q181 455 200 471T220 515Q220 577 126 577H105V642Z" />
<glyph unicode="&#xb4;" glyph-name="acute" horiz-adv-x="444" d="M121 636L216 798H325L205 636H121Z" />
<glyph unicode="&#xb5;" glyph-name="uni00B5" horiz-adv-x="557" d="M390 507H488V0H390V72Q354 -6 265 -6Q208 -6 167 23V-179H69V507H167V185Q167 134 199 106T279 78Q332 78 361 117T390 231V507Z" />
<glyph unicode="&#xb6;" glyph-name="paragraph" horiz-adv-x="559" d="M297 674V-148H215V334Q123 334 72 382T21 503Q21 573 72 623T222 674H297ZM405 -148L406 674H488V-148H405Z" />
<glyph unicode="&#xb7;" glyph-name="middot" horiz-adv-x="242" d="M54 272T54 300T73 347T122 367Q150 367 169 348T189 300T170 252T122 232T74 252Z" />
<glyph unicode="&#xb8;" glyph-name="cedilla" horiz-adv-x="444" d="M301 -123Q301 -179 260 -217T142 -257V-189Q224 -184 224 -120Q224 -88 199 -51H283Q301 -76 301 -123Z" />
<glyph unicode="&#xb9;" glyph-name="onesuperior" horiz-adv-x="258" d="M10 678V753L132 823H194V392H119V738L10 678Z" />
<glyph unicode="&#xba;" glyph-name="ordmasculine" horiz-adv-x="395" d="M197 386Q104 386 52 447T-1 604Q-1 701 53 764T197 828Q293 828 344 766T396 608Q396 511 344 449T197 386ZM196 759Q143 759 114 715T85 606Q85 542 115 499T197 455Q252 455 280 497T309
606Q309 673 282 716T196 759Z" />
<glyph unicode="&#xbb;" glyph-name="guillemotright" horiz-adv-x="514" d="M139 415L290 253L139 91H33L179 253L33 415H139ZM335 415L485 253L335 91H229L375 253L229 415H335Z" />
<glyph unicode="&#xbc;" glyph-name="onequarter" horiz-adv-x="831" d="M158 280V626L49 567V642L171 711H233V280H158ZM582 712H664L220 0H138L582 712ZM544 156H665V373L544 156ZM797 156V95H738V0H665V95H469V156L624 429H738V156H797Z" />
<glyph unicode="&#xbd;" glyph-name="onehalf" horiz-adv-x="833" d="M516 0V57Q706 198 706 295Q706 328 687 345T634 363Q583 363 529 323V402Q582 435 641 435Q703 435 744 400T786 302Q786 243 740 182T619 65H800V0H516ZM49 567V642L171 711H233V280H158V626L49
567ZM138 0L582 712H664L220 0H138Z" />
<glyph unicode="&#xbe;" glyph-name="threequarters" horiz-adv-x="876" d="M71 614V688Q114 715 168 715Q236 715 273 682T310 597Q310 558 289 532T231 498Q268 495 294 467T321 396Q321 342 283 309T177 276Q108 276 58 301V371Q110 343 169 343Q203 343 223
359T243 403Q243 465 149 465H127V529H149Q184 529 207 545T231 590Q231 647 165 647Q117 647 71 614ZM637 712H720L275 0H193L637 712ZM600 156H720V373L600 156ZM852 156V95H793V0H720V95H524V156L679 429H793V156H852Z" />
<glyph unicode="&#xbf;" glyph-name="questiondown" horiz-adv-x="454" d="M418 -39V-136Q350 -173 260 -173Q165 -173 108 -125T51 10Q51 69 82 111T153 173T238 195L239 296H332L333 134Q152 134 152 18Q152 -29 181 -57T270 -86Q345 -86 418 -39ZM355 478T355
449T336 401T287 381T238 400T218 449T238 497T287 517T335 498Z" />
<glyph unicode="&#xc0;" glyph-name="Agrave" horiz-adv-x="660" d="M369 725H285L165 887H274L369 725ZM222 251H438L427 285Q389 403 365 480T336 577L331 596Q320 549 233 285L222 251ZM519 0L466 165H194L140 0H31L264 674H399L629 0H519Z" />
<glyph unicode="&#xc1;" glyph-name="Aacute" horiz-adv-x="660" d="M502 887L382 725H298L393 887H502ZM222 251H438L427 285Q389 403 365 480T336 577L331 596Q320 549 233 285L222 251ZM519 0L466 165H194L140 0H31L264 674H399L629 0H519Z" />
<glyph unicode="&#xc2;" glyph-name="Acircumflex" horiz-adv-x="660" d="M332 827L250 725H153L288 887H378L513 725H416L332 827ZM222 251H438L427 285Q389 403 365 480T336 577L331 596Q320 549 233 285L222 251ZM519 0L466 165H194L140 0H31L264 674H399L629 0H519Z" />
<glyph unicode="&#xc3;" glyph-name="Atilde" horiz-adv-x="660" d="M453 868L509 826Q474 752 400 752Q371 752 331 772T274 793Q251 793 236 782T204 747L155 792Q169 823 197 844T260 866Q292 866 334 846T395 825Q432 825 453 868ZM222 251H438L427 285Q389
403 365 480T336 577L331 596Q320 549 233 285L222 251ZM519 0L466 165H194L140 0H31L264 674H399L629 0H519Z" />
<glyph unicode="&#xc4;" glyph-name="Adieresis" horiz-adv-x="660" d="M445 747Q420 747 403 764T385 807T402 849T445 867Q471 867 488 850T506 807T489 764T445 747ZM225 747Q198 747 181 764T164 807T181 850T225 867Q250 867 267 850T285 807T268 765T225
747ZM222 251H438L427 285Q389 403 365 480T336 577L331 596Q320 549 233 285L222 251ZM519 0L466 165H194L140 0H31L264 674H399L629 0H519Z" />
<glyph unicode="&#xc5;" glyph-name="Aring" horiz-adv-x="660" d="M333 885Q311 885 296 869T280 831T295 793T333 776Q356 776 371 792T387 831T372 869T333 885ZM333 715Q286 715 253 748T219 829Q219 877 252 911T333 945Q381 945 415 911T449 829Q449 782
415 749T333 715ZM222 251H438L427 285Q389 403 365 480T336 577L331 596Q320 549 233 285L222 251ZM519 0L466 165H194L140 0H31L264 674H399L629 0H519Z" />
<glyph unicode="&#xc6;" glyph-name="AE" horiz-adv-x="897" d="M266 251H459V608Q403 495 285 285L266 251ZM559 86H845V0H459V165H218L127 0H19L385 674H840V588H559V380H808V294H559V86Z" />
<glyph unicode="&#xc7;" glyph-name="Ccedilla" horiz-adv-x="605" d="M328 -51H412Q430 -76 430 -123Q430 -179 389 -217T271 -257V-189Q353 -184 353 -120Q353 -88 328 -51ZM560 646V545Q516 569 481 578T390 588Q289 588 222 520T154 338Q154 223 221 155T398
87Q495 87 561 137V33Q499 -8 389 -8Q238 -8 142 86T46 338Q46 491 142 587T387 683Q495 683 560 646Z" />
<glyph unicode="&#xc8;" glyph-name="Egrave" horiz-adv-x="514" d="M327 725H243L123 887H232L327 725ZM176 86H462V0H73V674H457V588H176V380H425V294H176V86Z" />
<glyph unicode="&#xc9;" glyph-name="Eacute" horiz-adv-x="514" d="M442 887L322 725H238L333 887H442ZM176 86H462V0H73V674H457V588H176V380H425V294H176V86Z" />
<glyph unicode="&#xca;" glyph-name="Ecircumflex" horiz-adv-x="514" d="M272 827L190 725H93L228 887H318L453 725H356L272 827ZM176 86H462V0H73V674H457V588H176V380H425V294H176V86Z" />
<glyph unicode="&#xcb;" glyph-name="Edieresis" horiz-adv-x="514" d="M379 746Q354 746 337 763T319 806T336 849T379 866Q405 866 422 849T440 806T423 763T379 746ZM159 746Q132 746 115 763T98 806T115 849T159 866Q184 866 201 849T219 806T202 763T159
746ZM176 86H462V0H73V674H457V588H176V380H425V294H176V86Z" />
<glyph unicode="&#xcc;" glyph-name="Igrave" horiz-adv-x="264" d="M81 0V674H183V0H81ZM74 887L169 725H85L-35 887H74Z" />
<glyph unicode="&#xcd;" glyph-name="Iacute" horiz-adv-x="264" d="M81 0V674H183V0H81ZM94 725L189 887H298L178 725H94Z" />
<glyph unicode="&#xce;" glyph-name="Icircumflex" horiz-adv-x="264" d="M88 887H178L313 725H216L132 827L50 725H-47L88 887ZM81 0V674H183V0H81Z" />
<glyph unicode="&#xcf;" glyph-name="Idieresis" horiz-adv-x="264" d="M81 0V674H183V0H81ZM-36 781T-36 807T-19 850T25 867Q50 867 67 850T85 807T68 765T25 747Q-2 747 -19 764ZM185 782T185 807T202 849T245 867Q271 867 288 850T306 807T289 764T245 747Q220
747 203 764Z" />
<glyph unicode="&#xd0;" glyph-name="Eth" horiz-adv-x="736" d="M246 87H352Q468 87 528 159T588 344Q588 448 523 517T349 586H246V378H410V294H246V87ZM142 674H351Q501 674 597 581T693 344Q693 194 603 97T353 0H142V294H62V378H142V674Z" />
<glyph unicode="&#xd1;" glyph-name="Ntilde" horiz-adv-x="680" d="M73 0V674H195L361 392Q407 313 444 246T496 152L510 124Q504 215 504 391V674H607V0H485L318 281Q273 357 236 424T183 522L168 551Q176 451 176 282V0H73ZM469 868L525 826Q490 752 416 752Q387
752 347 772T290 793Q267 793 252 782T220 747L171 792Q185 823 213 844T276 866Q308 866 350 846T411 825Q448 825 469 868Z" />
<glyph unicode="&#xd2;" glyph-name="Ograve" horiz-adv-x="711" d="M46 340Q46 497 130 592T355 687Q499 687 582 593T665 340T582 87T356 -8Q215 -8 131 87T46 340ZM154 456T154 340T209 156T356 88Q451 88 504 155T557 340Q557 457 504 524T355 591Q261 591
208 524ZM312 887L407 725H323L203 887H312Z" />
<glyph unicode="&#xd3;" glyph-name="Oacute" horiz-adv-x="711" d="M320 725L415 887H524L404 725H320ZM46 340Q46 497 130 592T355 687Q499 687 582 593T665 340T582 87T356 -8Q215 -8 131 87T46 340ZM154 456T154 340T209 156T356 88Q451 88 504 155T557 340Q557
457 504 524T355 591Q261 591 208 524Z" />
<glyph unicode="&#xd4;" glyph-name="Ocircumflex" horiz-adv-x="711" d="M154 456T154 340T209 156T356 88Q451 88 504 155T557 340Q557 457 504 524T355 591Q261 591 208 524ZM46 340Q46 497 130 592T355 687Q499 687 582 593T665 340T582 87T356 -8Q215 -8
131 87T46 340ZM317 887H407L542 725H445L361 827L279 725H182L317 887Z" />
<glyph unicode="&#xd5;" glyph-name="Otilde" horiz-adv-x="711" d="M46 340Q46 497 130 592T355 687Q499 687 582 593T665 340T582 87T356 -8Q215 -8 131 87T46 340ZM154 456T154 340T209 156T356 88Q451 88 504 155T557 340Q557 457 504 524T355 591Q261 591
208 524ZM478 869L534 827Q499 753 425 753Q396 753 356 773T299 794Q276 794 261 783T229 748L180 793Q194 824 222 845T285 867Q317 867 359 847T420 826Q457 826 478 869Z" />
<glyph unicode="&#xd6;" glyph-name="Odieresis" horiz-adv-x="711" d="M190 781T190 807T207 850T251 867Q276 867 293 850T311 807T294 765T251 747Q224 747 207 764ZM411 782T411 807T428 849T471 867Q497 867 514 850T532 807T515 764T471 747Q446 747 429
764ZM46 340Q46 497 130 592T355 687Q499 687 582 593T665 340T582 87T356 -8Q215 -8 131 87T46 340ZM154 456T154 340T209 156T356 88Q451 88 504 155T557 340Q557 457 504 524T355 591Q261 591 208 524Z" />
<glyph unicode="&#xd7;" glyph-name="multiply" horiz-adv-x="503" d="M447 472L314 340L445 210L382 147L251 277L121 148L57 211L187 341L54 473L117 536L250 404L383 536L447 472Z" />
<glyph unicode="&#xd8;" glyph-name="Oslash" horiz-adv-x="686" d="M520 497L238 118Q286 84 351 84Q447 84 500 152T554 340Q554 434 520 497ZM182 182L464 562Q419 595 350 595Q255 595 201 527T146 340Q146 246 182 182ZM661 686L585 583Q660 489 660 340Q660
182 577 87T351 -8Q253 -8 180 40L144 -8H40L117 96Q40 190 40 340Q40 497 124 592T350 687Q448 687 522 640L557 686H661Z" />
<glyph unicode="&#xd9;" glyph-name="Ugrave" horiz-adv-x="652" d="M478 256V674H581V258Q581 127 513 59T325 -9Q207 -9 139 57T71 250V674H174V251Q174 165 215 126T325 86Q478 86 478 256ZM277 887L372 725H288L168 887H277Z" />
<glyph unicode="&#xda;" glyph-name="Uacute" horiz-adv-x="652" d="M297 725L392 887H501L381 725H297ZM478 256V674H581V258Q581 127 513 59T325 -9Q207 -9 139 57T71 250V674H174V251Q174 165 215 126T325 86Q478 86 478 256Z" />
<glyph unicode="&#xdb;" glyph-name="Ucircumflex" horiz-adv-x="652" d="M478 256V674H581V258Q581 127 513 59T325 -9Q207 -9 139 57T71 250V674H174V251Q174 165 215 126T325 86Q478 86 478 256ZM282 887H372L507 725H410L326 827L244 725H147L282 887Z" />
<glyph unicode="&#xdc;" glyph-name="Udieresis" horiz-adv-x="652" d="M157 781T157 807T174 850T218 867Q244 867 261 850T278 807T261 765T218 747Q191 747 174 764ZM378 782T378 807T395 849T438 867T481 850T499 807T482 764T438 747T395 764ZM478 256V674H581V258Q581
127 513 59T325 -9Q207 -9 139 57T71 250V674H174V251Q174 165 215 126T325 86Q478 86 478 256Z" />
<glyph unicode="&#xdd;" glyph-name="Yacute" horiz-adv-x="608" d="M482 887L362 725H278L373 887H482ZM585 674L354 251V0H251V251L23 674H141L189 575Q235 482 263 422T296 348L302 335Q311 365 418 575L467 674H585Z" />
<glyph unicode="&#xde;" glyph-name="Thorn" horiz-adv-x="544" d="M176 205H265Q337 205 373 240T409 333Q409 394 373 431T259 469H176V205ZM176 554H261Q380 554 446 494T513 335Q513 238 446 179T267 120H176V0H73V674H176V554Z" />
<glyph unicode="&#xdf;" glyph-name="germandbls" horiz-adv-x="558" d="M264 8V98Q307 74 354 74Q391 74 413 92T436 140Q436 164 421 184T384 221T340 255T303 297T288 352Q288 392 325 442T362 526T338 580T274 601Q168 601 168 490V0H71V486Q71 586 125 638T273
690Q357 690 409 644T462 531Q462 489 444 457T409 402T391 360T413 320T461 281T509 226T531 143Q531 76 485 34T359 -8Q300 -8 264 8Z" />
<glyph unicode="&#xe0;" glyph-name="agrave" horiz-adv-x="499" d="M301 558H217L97 720H206L301 558ZM336 226H260Q204 226 176 204T147 148Q147 113 169 93T233 73Q281 73 308 99T336 169V226ZM81 386V481Q140 515 237 515Q436 515 436 322V0H339V60Q300 -4
202 -4Q130 -4 87 37T43 143Q43 216 98 256T252 297H336V326Q336 378 311 404T228 431Q147 431 81 386Z" />
<glyph unicode="&#xe1;" glyph-name="aacute" horiz-adv-x="499" d="M419 720L299 558H215L310 720H419ZM336 226H260Q204 226 176 204T147 148Q147 113 169 93T233 73Q281 73 308 99T336 169V226ZM81 386V481Q140 515 237 515Q436 515 436 322V0H339V60Q300 -4
202 -4Q130 -4 87 37T43 143Q43 216 98 256T252 297H336V326Q336 378 311 404T228 431Q147 431 81 386Z" />
<glyph unicode="&#xe2;" glyph-name="acircumflex" horiz-adv-x="499" d="M254 660L172 558H75L210 720H300L435 558H338L254 660ZM336 226H260Q204 226 176 204T147 148Q147 113 169 93T233 73Q281 73 308 99T336 169V226ZM81 386V481Q140 515 237 515Q436 515
436 322V0H339V60Q300 -4 202 -4Q130 -4 87 37T43 143Q43 216 98 256T252 297H336V326Q336 378 311 404T228 431Q147 431 81 386Z" />
<glyph unicode="&#xe3;" glyph-name="atilde" horiz-adv-x="499" d="M373 701L429 659Q394 585 320 585Q291 585 251 605T194 626Q171 626 156 615T124 580L75 625Q89 656 117 677T180 699Q212 699 254 679T315 658Q352 658 373 701ZM336 226H260Q204 226 176
204T147 148Q147 113 169 93T233 73Q281 73 308 99T336 169V226ZM81 386V481Q140 515 237 515Q436 515 436 322V0H339V60Q300 -4 202 -4Q130 -4 87 37T43 143Q43 216 98 256T252 297H336V326Q336 378 311 404T228 431Q147 431 81 386Z" />
<glyph unicode="&#xe4;" glyph-name="adieresis" horiz-adv-x="499" d="M392 578T366 578T323 595T306 638T323 681T366 698T409 681T427 638T410 595ZM146 578Q119 578 102 595T85 638T102 681T146 698Q172 698 189 681T206 638T189 595T146 578ZM336 226H260Q204
226 176 204T147 148Q147 113 169 93T233 73Q281 73 308 99T336 169V226ZM81 386V481Q140 515 237 515Q436 515 436 322V0H339V60Q300 -4 202 -4Q130 -4 87 37T43 143Q43 216 98 256T252 297H336V326Q336 378 311 404T228 431Q147 431 81 386Z" />
<glyph unicode="&#xe5;" glyph-name="aring" horiz-adv-x="499" d="M256 718Q234 718 219 702T203 664T218 626T256 609Q279 609 294 625T310 664T295 702T256 718ZM256 548Q209 548 176 581T142 662Q142 710 175 744T256 778Q304 778 338 744T372 662Q372 615
338 582T256 548ZM336 226H260Q204 226 176 204T147 148Q147 113 169 93T233 73Q281 73 308 99T336 169V226ZM81 386V481Q140 515 237 515Q436 515 436 322V0H339V60Q300 -4 202 -4Q130 -4 87 37T43 143Q43 216 98 256T252 297H336V326Q336 378 311 404T228 431Q147
431 81 386Z" />
<glyph unicode="&#xe6;" glyph-name="ae" horiz-adv-x="816" d="M341 175V225H274Q151 225 151 147Q151 113 173 94T238 74Q282 74 311 101T341 175ZM681 290V308Q680 367 650 399T569 432Q519 432 483 396T437 290H681ZM770 213H439Q450 147 495 112T607 77Q687
77 741 115V27Q685 -5 598 -5Q535 -5 480 21T395 96Q376 52 331 24T216 -5Q139 -5 94 35T48 143Q48 216 103 257T259 298H341V326Q341 378 316 404T233 431Q153 431 86 387V480Q144 515 238 515Q363 515 398 430Q454 513 568 513Q667 513 721 452T776 275Q776 247
770 213Z" />
<glyph unicode="&#xe7;" glyph-name="ccedilla" horiz-adv-x="471" d="M142 251Q144 174 189 125T315 75Q375 75 427 108V20Q378 -10 302 -10Q183 -10 112 65T41 252Q41 361 112 438T306 516Q372 516 427 488V398Q378 429 316 429Q237 429 190 379T142 251ZM348
-123Q348 -179 307 -217T189 -257V-189Q271 -184 271 -120Q271 -88 246 -51H330Q348 -76 348 -123Z" />
<glyph unicode="&#xe8;" glyph-name="egrave" horiz-adv-x="525" d="M324 558H240L120 720H229L324 558ZM384 290V308Q382 365 353 398T270 432Q220 432 184 396T139 290H384ZM447 115V27Q391 -5 299 -5Q181 -5 111 66T41 252Q41 374 105 443T268 513Q365 513
422 453T479 278Q479 247 473 213H140Q150 147 196 112T312 77Q393 77 447 115Z" />
<glyph unicode="&#xe9;" glyph-name="eacute" horiz-adv-x="525" d="M448 720L328 558H244L339 720H448ZM384 290V308Q382 365 353 398T270 432Q220 432 184 396T139 290H384ZM447 115V27Q391 -5 299 -5Q181 -5 111 66T41 252Q41 374 105 443T268 513Q365 513
422 453T479 278Q479 247 473 213H140Q150 147 196 112T312 77Q393 77 447 115Z" />
<glyph unicode="&#xea;" glyph-name="ecircumflex" horiz-adv-x="525" d="M277 660L195 558H98L233 720H323L458 558H361L277 660ZM384 290V308Q382 365 353 398T270 432Q220 432 184 396T139 290H384ZM447 115V27Q391 -5 299 -5Q181 -5 111 66T41 252Q41 374
105 443T268 513Q365 513 422 453T479 278Q479 247 473 213H140Q150 147 196 112T312 77Q393 77 447 115Z" />
<glyph unicode="&#xeb;" glyph-name="edieresis" horiz-adv-x="525" d="M418 580T392 580T349 597T332 640T349 683T392 700T435 683T453 640T436 597ZM172 580Q145 580 128 597T111 640T128 683T172 700Q198 700 215 683T232 640T215 597T172 580ZM384 290V308Q382
365 353 398T270 432Q220 432 184 396T139 290H384ZM447 115V27Q391 -5 299 -5Q181 -5 111 66T41 252Q41 374 105 443T268 513Q365 513 422 453T479 278Q479 247 473 213H140Q150 147 196 112T312 77Q393 77 447 115Z" />
<glyph unicode="&#xec;" glyph-name="igrave" horiz-adv-x="245" d="M73 0V507H172V0H73ZM63 720L158 558H74L-46 720H63Z" />
<glyph unicode="&#xed;" glyph-name="iacute" horiz-adv-x="245" d="M73 0V507H172V0H73ZM88 558L183 720H292L172 558H88Z" />
<glyph unicode="&#xee;" glyph-name="icircumflex" horiz-adv-x="245" d="M79 720H169L304 558H207L123 660L41 558H-56L79 720ZM73 0V507H172V0H73Z" />
<glyph unicode="&#xef;" glyph-name="idieresis" horiz-adv-x="245" d="M73 0V507H172V0H73ZM-48 615T-48 641T-31 684T13 701Q38 701 55 684T73 641T56 599T13 581Q-14 581 -31 598ZM173 616T173 641T190 683T233 701Q259 701 276 684T294 641T277 598T233 581Q208
581 191 598Z" />
<glyph unicode="&#xf0;" glyph-name="eth" horiz-adv-x="528" d="M256 80Q309 80 345 120T386 250Q332 319 251 319Q201 319 170 287T139 198Q139 144 171 112T256 80ZM461 609L381 569Q483 435 483 275Q483 140 423 66T256 -9Q157 -9 97 53T37 203Q37 296 94
351T236 406Q323 406 382 344Q365 443 301 529L160 458V525L260 575Q203 633 130 674H272Q309 649 341 616L461 676V609Z" />
<glyph unicode="&#xf1;" glyph-name="ntilde" horiz-adv-x="551" d="M404 701L460 659Q425 585 351 585Q322 585 282 605T225 626Q202 626 187 615T155 580L106 625Q120 656 148 677T211 699Q243 699 285 679T346 658Q383 658 404 701ZM167 507V420Q212 514 325
514Q400 514 444 468T488 343V0H390V320Q390 373 364 401T293 429Q241 429 204 389T167 275V0H69V507H167Z" />
<glyph unicode="&#xf2;" glyph-name="ograve" horiz-adv-x="564" d="M281 -9Q169 -9 105 64T41 249Q41 363 107 438T281 514Q397 514 460 441T523 253T459 65T281 -9ZM280 431Q215 431 179 380T143 252Q143 177 180 126T281 74Q349 74 384 124T420 251Q420 330
386 380T280 431ZM234 720L329 558H245L125 720H234Z" />
<glyph unicode="&#xf3;" glyph-name="oacute" horiz-adv-x="564" d="M252 558L347 720H456L336 558H252ZM281 -9Q169 -9 105 64T41 249Q41 363 107 438T281 514Q397 514 460 441T523 253T459 65T281 -9ZM280 431Q215 431 179 380T143 252Q143 177 180 126T281
74Q349 74 384 124T420 251Q420 330 386 380T280 431Z" />
<glyph unicode="&#xf4;" glyph-name="ocircumflex" horiz-adv-x="564" d="M280 431Q215 431 179 380T143 252Q143 177 180 126T281 74Q349 74 384 124T420 251Q420 330 386 380T280 431ZM281 -9Q169 -9 105 64T41 249Q41 363 107 438T281 514Q397 514 460 441T523
253T459 65T281 -9ZM240 719H330L465 557H368L284 659L202 557H105L240 719Z" />
<glyph unicode="&#xf5;" glyph-name="otilde" horiz-adv-x="564" d="M281 -9Q169 -9 105 64T41 249Q41 363 107 438T281 514Q397 514 460 441T523 253T459 65T281 -9ZM280 431Q215 431 179 380T143 252Q143 177 180 126T281 74Q349 74 384 124T420 251Q420 330
386 380T280 431ZM406 701L462 659Q427 585 353 585Q324 585 284 605T227 626Q204 626 189 615T157 580L108 625Q122 656 150 677T213 699Q245 699 287 679T348 658Q385 658 406 701Z" />
<glyph unicode="&#xf6;" glyph-name="odieresis" horiz-adv-x="564" d="M120 613T120 639T137 682T181 699Q206 699 223 682T241 639T224 597T181 579Q154 579 137 596ZM341 614T341 639T358 681T401 699Q427 699 444 682T462 639T445 596T401 579Q376 579 359
596ZM281 -9Q169 -9 105 64T41 249Q41 363 107 438T281 514Q397 514 460 441T523 253T459 65T281 -9ZM280 431Q215 431 179 380T143 252Q143 177 180 126T281 74Q349 74 384 124T420 251Q420 330 386 380T280 431Z" />
<glyph unicode="&#xf7;" glyph-name="divide" horiz-adv-x="564" d="M221 494T221 518T238 559T280 577T321 560T339 518T322 476T280 458T239 476ZM53 296V384H510V296H53ZM221 138T221 162T238 204T280 222T321 204T339 162T322 121T280 103T239 120Z" />
<glyph unicode="&#xf8;" glyph-name="oslash" horiz-adv-x="563" d="M418 360L215 88Q247 65 291 65Q363 65 401 117T439 251Q439 317 418 360ZM166 147L368 419Q336 440 290 440Q220 440 182 386T143 252Q143 193 166 147ZM533 514L474 435Q533 364 533 253Q533
139 468 65T290 -9Q219 -9 166 22L143 -9H50L109 70Q50 141 50 249Q50 363 116 438T290 514Q363 514 416 483L439 514H533Z" />
<glyph unicode="&#xf9;" glyph-name="ugrave" horiz-adv-x="551" d="M318 557H234L114 719H223L318 557ZM384 507H482V0H384V87Q344 -6 226 -6Q151 -6 107 38T63 161V507H162V185Q162 133 187 106T258 78Q315 78 349 118T384 231V507Z" />
<glyph unicode="&#xfa;" glyph-name="uacute" horiz-adv-x="551" d="M444 720L324 558H240L335 720H444ZM384 507H482V0H384V87Q344 -6 226 -6Q151 -6 107 38T63 161V507H162V185Q162 133 187 106T258 78Q315 78 349 118T384 231V507Z" />
<glyph unicode="&#xfb;" glyph-name="ucircumflex" horiz-adv-x="551" d="M274 660L192 558H95L230 720H320L455 558H358L274 660ZM384 507H482V0H384V87Q344 -6 226 -6Q151 -6 107 38T63 161V507H162V185Q162 133 187 106T258 78Q315 78 349 118T384 231V507Z" />
<glyph unicode="&#xfc;" glyph-name="udieresis" horiz-adv-x="551" d="M385 579Q360 579 343 596T325 639T342 681T385 699Q411 699 428 682T446 639T429 596T385 579ZM165 579Q138 579 121 596T104 639T121 682T165 699Q190 699 207 682T225 639T208 597T165
579ZM384 507H482V0H384V87Q344 -6 226 -6Q151 -6 107 38T63 161V507H162V185Q162 133 187 106T258 78Q315 78 349 118T384 231V507Z" />
<glyph unicode="&#xfd;" glyph-name="yacute" horiz-adv-x="504" d="M223 558L318 720H427L307 558H223ZM209 11L7 507H116L179 342L258 128Q267 158 330 342L387 507H491L308 14Q235 -181 85 -181Q58 -181 39 -176V-92Q55 -96 73 -96Q170 -96 209 11Z" />
<glyph unicode="&#xfe;" glyph-name="thorn" horiz-adv-x="580" d="M303 79Q362 79 400 125T438 256Q438 335 401 381T307 428T209 387T167 255Q167 167 208 123T303 79ZM167 707V429Q219 514 323 514Q423 514 481 442T539 257Q539 142 480 68T321 -7Q220 -7 167
77V-194H69V707H167Z" />
<glyph unicode="&#xff;" glyph-name="ydieresis" horiz-adv-x="504" d="M311 614T311 639T328 681T371 699Q397 699 414 682T432 639T415 596T371 579Q346 579 329 596ZM90 613T90 639T107 682T151 699Q176 699 193 682T211 639T194 597T151 579Q124 579 107 596ZM209
11L7 507H116L179 342L258 128Q267 158 330 342L387 507H491L308 14Q235 -181 85 -181Q58 -181 39 -176V-92Q55 -96 73 -96Q170 -96 209 11Z" />
<glyph unicode="&#x2013;" glyph-name="endash" horiz-adv-x="544" d="M53 231V309H491V231H53Z" />
<glyph unicode="&#x2014;" glyph-name="emdash" horiz-adv-x="826" d="M53 233V311H773V233H53Z" />
<glyph unicode="&#x2018;" glyph-name="quoteleft" horiz-adv-x="205" d="M221 695L132 460H16L140 695H221Z" />
<glyph unicode="&#x2019;" glyph-name="quoteright" horiz-adv-x="206" d="M17 460L105 695H222L97 460H17Z" />
<glyph unicode="&#x201a;" glyph-name="quotesinglbase" horiz-adv-x="206" d="M-1 -124L88 110H204L80 -124H-1Z" />
<glyph unicode="&#x201c;" glyph-name="quotedblleft" horiz-adv-x="361" d="M221 695L131 460H16L143 695H221ZM377 695L290 460H180L298 695H377Z" />
<glyph unicode="&#x201d;" glyph-name="quotedblright" horiz-adv-x="361" d="M172 460L262 695H377L251 460H172ZM17 460L103 695H213L95 460H17Z" />
<glyph unicode="&#x201e;" glyph-name="quotedblbase" horiz-adv-x="361" d="M157 -124L247 110H362L235 -124H157ZM1 -124L88 110H197L80 -124H1Z" />
<glyph unicode="&#x2022;" glyph-name="bullet" horiz-adv-x="442" d="M88 299T88 356T125 451T220 489Q276 489 314 451T353 356T315 262T221 223Q164 223 126 261Z" />
<glyph unicode="&#x2039;" glyph-name="guilsinglleft" horiz-adv-x="320" d="M285 415L139 253L285 91H179L28 253L179 415H285Z" />
<glyph unicode="&#x203a;" glyph-name="guilsinglright" horiz-adv-x="318" d="M141 415L292 253L141 91H35L181 253L35 415H141Z" />
</font>
</defs>
</svg>
