<svg width="412" height="89" xmlns="http://www.w3.org/2000/svg" xmlns:xlink="http://www.w3.org/1999/xlink" overflow="hidden"><defs><clipPath id="clip0"><path d="M285 87 697 87 697 176 285 176Z" fill-rule="evenodd" clip-rule="evenodd"/></clipPath><clipPath id="clip1"><path d="M285 87 697 87 697 175 285 175Z" fill-rule="evenodd" clip-rule="evenodd"/></clipPath><clipPath id="clip2"><path d="M285 87 697 87 697 175 285 175Z" fill-rule="evenodd" clip-rule="evenodd"/></clipPath></defs><g clip-path="url(#clip0)" transform="translate(-285 -87)"><g clip-path="url(#clip1)"><g clip-path="url(#clip2)"><path d="M341.195 704.491C336.369 704.491 331.973 703.697 328.007 702.111 324.04 700.524 320.635 698.21 317.793 695.169 314.95 692.128 312.735 688.393 311.149 683.964 309.628 679.468 308.868 674.345 308.868 668.593 308.868 662.842 309.727 657.751 311.446 653.322 313.231 648.827 315.611 645.058 318.586 642.017 321.561 638.976 325.032 636.662 328.998 635.076 332.965 633.489 337.196 632.696 341.691 632.696 344.534 632.696 347.079 632.894 349.327 633.291 351.641 633.688 353.624 634.15 355.277 634.679 356.995 635.208 358.384 635.737 359.441 636.266 360.499 636.795 361.226 637.191 361.623 637.456L358.847 645.389C358.252 644.992 357.392 644.563 356.268 644.1 355.144 643.637 353.855 643.174 352.401 642.712 351.013 642.249 349.459 641.885 347.74 641.621 346.087 641.29 344.402 641.125 342.683 641.125 339.047 641.125 335.774 641.753 332.866 643.009 329.957 644.265 327.478 646.083 325.428 648.463 323.379 650.843 321.792 653.752 320.668 657.189 319.611 660.561 319.082 664.362 319.082 668.593 319.082 672.692 319.545 676.427 320.47 679.799 321.462 683.17 322.916 686.079 324.833 688.525 326.75 690.905 329.13 692.756 331.973 694.078 334.882 695.401 338.254 696.062 342.088 696.062 346.517 696.062 350.186 695.599 353.095 694.673 356.004 693.748 358.185 692.921 359.64 692.194L362.119 700.127C361.656 700.458 360.83 700.888 359.64 701.416 358.45 701.879 356.962 702.342 355.177 702.805 353.393 703.268 351.31 703.664 348.93 703.995 346.55 704.325 343.972 704.491 341.195 704.491Z" fill="#4C4C4C" transform="matrix(1.00247 0 -0 1 98.7374 -538.641)"/><path d="M413.385 694.673 413.385 703.003 372.034 703.003 372.034 634.283 381.653 634.283 381.653 694.673Z" fill="#4C4C4C" transform="matrix(1.00247 0 -0 1 98.7374 -538.641)"/><path d="M438.511 696.161C448.559 696.161 453.584 692.723 453.584 685.848 453.584 683.732 453.121 681.947 452.195 680.493 451.336 678.972 450.146 677.683 448.625 676.626 447.105 675.502 445.353 674.543 443.37 673.75 441.453 672.956 439.403 672.163 437.222 671.37 434.709 670.51 432.329 669.552 430.082 668.494 427.834 667.37 425.884 666.081 424.231 664.627 422.578 663.106 421.256 661.321 420.265 659.272 419.339 657.222 418.876 654.743 418.876 651.835 418.876 645.819 420.926 641.125 425.024 637.753 429.123 634.382 434.775 632.696 441.981 632.696 446.146 632.696 449.914 633.159 453.286 634.084 456.724 634.944 459.236 635.902 460.823 636.96L457.748 644.794C456.36 643.935 454.278 643.108 451.501 642.315 448.791 641.455 445.617 641.026 441.981 641.026 440.13 641.026 438.411 641.224 436.825 641.621 435.238 642.017 433.85 642.612 432.66 643.406 431.47 644.199 430.511 645.224 429.784 646.48 429.123 647.67 428.793 649.091 428.793 650.744 428.793 652.595 429.156 654.148 429.883 655.404 430.611 656.661 431.635 657.784 432.957 658.776 434.28 659.702 435.8 660.561 437.519 661.354 439.304 662.148 441.254 662.941 443.37 663.734 446.345 664.924 449.055 666.114 451.501 667.304 454.013 668.494 456.162 669.915 457.947 671.568 459.798 673.221 461.219 675.204 462.211 677.518 463.202 679.766 463.698 682.509 463.698 685.749 463.698 691.765 461.484 696.392 457.054 699.632 452.691 702.871 446.51 704.491 438.511 704.491 435.8 704.491 433.288 704.292 430.974 703.896 428.726 703.565 426.71 703.168 424.925 702.706 423.14 702.177 421.587 701.648 420.265 701.119 419.008 700.524 418.017 700.028 417.29 699.632L420.165 691.698C421.686 692.558 424 693.516 427.107 694.574 430.214 695.632 434.015 696.161 438.511 696.161Z" fill="#4C4C4C" transform="matrix(1.00247 0 -0 1 98.7374 -538.641)"/><path d="M520.132 703.003C519.008 700.028 517.95 697.119 516.958 694.277 515.967 691.368 514.942 688.426 513.884 685.451L482.747 685.451 476.5 703.003 466.484 703.003C469.129 695.731 471.608 689.021 473.921 682.873 476.235 676.659 478.483 670.775 480.665 665.222 482.912 659.669 485.127 654.38 487.309 649.355 489.49 644.265 491.771 639.241 494.151 634.283L502.976 634.283C505.356 639.241 507.637 644.265 509.819 649.355 512 654.38 514.182 659.669 516.364 665.222 518.611 670.775 520.892 676.659 523.206 682.873 525.52 689.021 527.999 695.731 530.643 703.003ZM511.108 677.518C508.992 671.767 506.877 666.213 504.761 660.858 502.712 655.438 500.563 650.248 498.316 645.29 496.002 650.248 493.787 655.438 491.672 660.858 489.622 666.213 487.573 671.767 485.524 677.518Z" fill="#4C4C4C" transform="matrix(1.00247 0 -0 1 98.7374 -538.641)"/><path d="M580.815 669.188 590.434 669.188 590.434 701.317C589.641 701.582 588.484 701.879 586.964 702.21 585.509 702.54 583.79 702.871 581.807 703.201 579.89 703.532 577.774 703.796 575.461 703.995 573.147 704.259 570.8 704.391 568.42 704.391 563.594 704.391 559.198 703.598 555.231 702.011 551.265 700.425 547.86 698.111 545.017 695.07 542.175 692.029 539.96 688.294 538.373 683.865 536.853 679.435 536.092 674.345 536.092 668.593 536.092 662.842 536.952 657.751 538.671 653.322 540.456 648.827 542.836 645.058 545.811 642.017 548.785 638.976 552.256 636.662 556.223 635.076 560.255 633.489 564.552 632.696 569.114 632.696 572.221 632.696 574.965 632.894 577.345 633.291 579.791 633.688 581.873 634.15 583.592 634.679 585.311 635.208 586.699 635.737 587.757 636.266 588.881 636.795 589.641 637.191 590.038 637.456L586.964 645.488C585.046 644.232 582.501 643.207 579.328 642.414 576.155 641.555 572.915 641.125 569.61 641.125 566.106 641.125 562.9 641.753 559.991 643.009 557.148 644.265 554.702 646.083 552.653 648.463 550.67 650.843 549.116 653.752 547.992 657.189 546.868 660.561 546.306 664.362 546.306 668.593 546.306 672.692 546.769 676.427 547.695 679.799 548.686 683.17 550.141 686.079 552.058 688.525 554.041 690.905 556.454 692.756 559.297 694.078 562.206 695.401 565.61 696.062 569.511 696.062 572.287 696.062 574.634 695.929 576.551 695.665 578.535 695.334 579.956 695.037 580.815 694.773Z" fill="#4C4C4C" transform="matrix(1.00247 0 -0 1 98.7374 -538.641)"/><path d="M301.822 670.195C301.822 690.178 285.196 706.377 264.687 706.377 244.178 706.377 227.552 690.178 227.552 670.195 227.552 650.211 244.178 634.012 264.687 634.012 285.196 634.012 301.822 650.211 301.822 670.195Z" stroke="#FF6600" stroke-width="6.29796" fill="#FFFFFF" transform="matrix(1.00247 0 -0 1 98.7374 -538.641)"/><path d="M290.973 670.194C290.973 690.178 274.347 706.377 253.837 706.377 233.328 706.377 216.702 690.178 216.702 670.194 216.702 650.211 233.328 634.012 253.837 634.012 274.347 634.012 290.973 650.211 290.973 670.194Z" stroke="#FF6600" stroke-width="6.29796" fill="#FFFFFF" transform="matrix(1.00247 0 -0 1 98.7374 -538.641)"/><path d="M279.411 670.194C279.411 690.178 262.785 706.377 242.276 706.377 221.766 706.377 205.141 690.178 205.141 670.194 205.141 650.211 221.766 634.012 242.276 634.012 262.785 634.012 279.411 650.211 279.411 670.194Z" stroke="#FF6600" stroke-width="6.29796" fill="#FFFFFF" transform="matrix(1.00247 0 -0 1 98.7374 -538.641)"/><path d="M267.255 670.195C267.255 690.178 250.629 706.377 230.12 706.377 209.611 706.377 192.985 690.178 192.985 670.195 192.985 650.211 209.611 634.012 230.12 634.012 250.629 634.012 267.255 650.211 267.255 670.195Z" stroke="#FF6600" stroke-width="6.29796" fill="#FFFFFF" transform="matrix(1.00247 0 -0 1 98.7374 -538.641)"/><path d="M258.931 670.138C258.931 686.772 245.943 700.256 229.922 700.256 213.902 700.256 200.914 686.772 200.914 670.138 200.914 653.504 213.902 640.02 229.922 640.02 245.943 640.02 258.931 653.505 258.931 670.138Z" fill="#4C4C4C" transform="matrix(1.00247 0 -0 1 98.7374 -538.641)"/><path d="M234.713 679.485C234.933 680.776 234.037 681.833 232.722 681.833L226.125 681.833C224.809 681.833 223.913 680.776 224.133 679.485L225.869 669.313C224.077 668.153 222.889 666.146 222.889 663.858 222.889 660.264 225.815 657.352 229.423 657.352 233.031 657.352 235.956 660.264 235.956 663.858 235.956 666.146 234.769 668.153 232.977 669.313L234.718 679.483Z" fill="#FFFFFF" transform="matrix(1.00247 0 -0 1 98.7374 -538.641)"/></g></g></g></svg>