<svg id="Layer_1" data-name="Layer 1" xmlns="http://www.w3.org/2000/svg" viewBox="0 0 127.72 127.72"><defs><style>.cls-1{fill:#00aebf;}.cls-2{fill:#fff;}.cls-3{fill:#4c4c4c;}</style></defs><path class="cls-1" d="M196.27,421a63.86,63.86,0,1,1-63.86-63.86A63.86,63.86,0,0,1,196.27,421Z" transform="translate(-68.55 -357.09)"/><path class="cls-2" d="M155.53,404.39a17.08,17.08,0,0,1-7.16-13.88V381h8v-8H108.46v8h8v9.48a17,17,0,0,1-7.16,13.88,39.92,39.92,0,1,0,46.25,0Z" transform="translate(-68.55 -357.09)"/><path id="_149931160" data-name=" 149931160" class="cls-3" d="M127.63,445.66l-9-9.06v16.9H105.12a31.94,31.94,0,0,0,54.57,0H146.24V436.6l-9.06,9.06-4.77,4.77-4.77-4.77Z" transform="translate(-68.55 -357.09)"/><path class="cls-1" d="M150.87,410.86a24.9,24.9,0,0,1-10.48-20.27V381h-16v9.56A24.88,24.88,0,0,1,114,410.86,31.94,31.94,0,0,0,102.11,447h9.54V420.13l20.76,20.75,20.75-20.75V447h9.55a31.94,31.94,0,0,0-11.84-36.13Z" transform="translate(-68.55 -357.09)"/><path class="cls-2" d="M136.4,398.14a4,4,0,1,1-4-4A4,4,0,0,1,136.4,398.14Z" transform="translate(-68.55 -357.09)"/><path class="cls-2" d="M124.42,417a4,4,0,1,1-4-4A4,4,0,0,1,124.42,417Z" transform="translate(-68.55 -357.09)"/><path class="cls-2" d="M145.05,414.62a6.32,6.32,0,1,1-6.32-6.31A6.33,6.33,0,0,1,145.05,414.62Z" transform="translate(-68.55 -357.09)"/></svg>