<?xml version="1.0" encoding="utf-8"?>
<!-- Generator: Adobe Illustrator 16.0.3, SVG Export Plug-In . SVG Version: 6.00 Build 0)  -->
<!DOCTYPE svg PUBLIC "-//W3C//DTD SVG 1.1//EN" "http://www.w3.org/Graphics/SVG/1.1/DTD/svg11.dtd">
<svg version="1.1" id="Layer_1" xmlns="http://www.w3.org/2000/svg" xmlns:xlink="http://www.w3.org/1999/xlink" x="0px" y="0px"
	 width="76px" height="76px" viewBox="0 0 76 76" enable-background="new 0 0 76 76" xml:space="preserve">
<g>
	<circle fill="#FFFFFF" cx="38" cy="38" r="36.919"/>
	<g>
		<path id="_149931032_2_" fill="#F26822" d="M37.999,1.098C17.622,1.098,1.096,17.622,1.096,38c0,4.073,0.66,7.991,1.879,11.656
			h11.037V18.607l23.987,23.987l23.987-23.987v31.049h11.037c1.22-3.665,1.88-7.583,1.88-11.656
			C74.903,17.622,58.378,1.098,37.999,1.098L37.999,1.098z"/>
		<path id="_149931160_2_" fill="#4D4D4D" d="M32.484,48.109L22.016,37.641v19.537h-4.002h-4.001H6.466
			c6.478,10.629,18.178,17.725,31.533,17.725s25.056-7.098,31.533-17.726h-7.547h-7.158h-0.845V37.641L43.514,48.109l-5.515,5.515
			L32.484,48.109L32.484,48.109z"/>
	</g>
</g>
</svg>
